# Converted from D:\Dwonloads\umodel_lostark_v7\extracted\KamenMap_Unity_20260612_172048\RawUModel\GltfMeshes_PngTextures\BG_RAD_KAMEN_D\StaticMesh3\bg_rad_kamen_wall03_sm_jjh.gltf
mtllib bg_rad_kamen_wall03_sm_jjh.mtl
o bg_rad_kamen_wall03_sm_jjh_0
usemtl BG_RAD_KAMEN_D__bg_rad_kamen_gate01b_mi_jjh
v -0.009063721 0.08977796 0.02793701
v -0.009063721 1.896243 0.02793701
v -0.02934875 1.896243 -1.586914e-05
v -0.02934875 0.08977796 -1.586914e-05
v 0.009101562 0.08977796 -0.02792419
v -0.009042358 0.08977796 -0.02793152
v -0.009042358 1.896243 -0.02793152
v 0.009101562 1.896243 -0.02792419
v 0.02938721 1.896243 6.103515e-06
v 0.02938721 0.08977796 6.103515e-06
v 2.13623e-05 2.659157 -4.882812e-06
v 0.00833374 2.659157 -2.441406e-06
v 0.002600098 2.659157 -0.007905274
v -0.002546387 2.659157 -0.007907105
v -0.008298339 2.659157 -7.93457e-06
v -0.00255249 2.659157 0.00793457
v 0.002592773 2.659157 0.007935791
v -0.009063721 1.896243 0.02793701
v -0.009063721 0.08977796 0.02793701
v 0.00908081 0.08977796 0.02794434
v 0.00908081 1.896243 0.02794434
v 0.02938721 0.08977796 6.103515e-06
v 0.02938721 1.896243 6.103515e-06
v -0.02934875 0.08977796 -1.586914e-05
v -0.02934875 1.896243 -1.586914e-05
v -0.009042358 1.896243 -0.02793152
v -0.009042358 0.08977796 -0.02793152
v 0.0435907 2.407942 1.037598e-05
v 0.01350098 2.407942 -0.04141784
v 0.002600098 2.659157 -0.007905274
v 0.00833374 2.659157 -2.441406e-06
v 0.0435907 2.407942 1.037598e-05
v 0.00833374 2.659157 -2.441406e-06
v 0.002592773 2.659157 0.007935791
v 0.01346924 2.407942 0.04145569
v 0.01346924 2.407942 0.04145569
v 0.002592773 2.659157 0.007935791
v -0.00255249 2.659157 0.00793457
v -0.01346374 2.407942 0.04144653
v -0.01346374 2.407942 0.04144653
v -0.00255249 2.659157 0.00793457
v -0.008298339 2.659157 -7.93457e-06
v -0.04354187 2.407942 -2.13623e-05
v -0.04354187 2.407942 -2.13623e-05
v -0.008298339 2.659157 -7.93457e-06
v -0.002546387 2.659157 -0.007907105
v -0.01343445 2.407942 -0.04142761
v 0.002600098 2.659157 -0.007905274
v 0.01350098 2.407942 -0.04141784
v -0.01343445 2.407942 -0.04142761
v -0.002546387 2.659157 -0.007907105
v 0.01302551 2.335709 -0.03997192
v 0.02405762 2.371017 -0.07391419
v 0.07776184 2.371017 -9.155273e-06
v 0.04205505 2.335709 1.098633e-05
v 0.02400268 2.371017 0.07394531
v 0.01299561 2.335709 0.0399884
v 0.04205505 2.335709 1.098633e-05
v 0.07776184 2.371017 -9.155273e-06
v 0.02400268 2.371017 0.07394531
v -0.02403992 2.371017 0.07392731
v -0.01297607 2.335709 0.03997925
v 0.01299561 2.335709 0.0399884
v -0.02403992 2.371017 0.07392731
v -0.07771485 2.371017 -6.652832e-05
v -0.04200989 2.335709 -2.075195e-05
v -0.01297607 2.335709 0.03997925
v -0.02398499 2.371017 -0.07393188
v -0.01294617 2.335709 -0.03998108
v -0.04200989 2.335709 -2.075195e-05
v -0.07771485 2.371017 -6.652832e-05
v -0.02398499 2.371017 -0.07393188
v 0.02405762 2.371017 -0.07391419
v 0.01302551 2.335709 -0.03997192
v -0.01294617 2.335709 -0.03998108
v 0.07776184 2.371017 -9.155273e-06
v 0.02405762 2.371017 -0.07391419
v 0.01350098 2.407942 -0.04141784
v 0.0435907 2.407942 1.037598e-05
v 0.0435907 2.407942 1.037598e-05
v 0.01346924 2.407942 0.04145569
v 0.02400268 2.371017 0.07394531
v 0.07776184 2.371017 -9.155273e-06
v 0.01346924 2.407942 0.04145569
v -0.01346374 2.407942 0.04144653
v -0.02403992 2.371017 0.07392731
v 0.02400268 2.371017 0.07394531
v -0.01346374 2.407942 0.04144653
v -0.04354187 2.407942 -2.13623e-05
v -0.07771485 2.371017 -6.652832e-05
v -0.02403992 2.371017 0.07392731
v -0.04354187 2.407942 -2.13623e-05
v -0.01343445 2.407942 -0.04142761
v -0.02398499 2.371017 -0.07393188
v -0.07771485 2.371017 -6.652832e-05
v -0.02398499 2.371017 -0.07393188
v -0.01343445 2.407942 -0.04142761
v 0.01350098 2.407942 -0.04141784
v 0.02405762 2.371017 -0.07391419
v 0.02938721 0.08977796 6.103515e-06
v 0.04776062 0.07092374 -1.220703e-06
v 0.01477356 0.07092374 -0.0453833
v 0.009101562 0.08977796 -0.02792419
v 0.00908081 0.08977796 0.02794434
v 0.01473999 0.07092374 0.04540832
v 0.04776062 0.07092374 -1.220703e-06
v 0.02938721 0.08977796 6.103515e-06
v 0.01473999 0.07092374 0.04540832
v 0.00908081 0.08977796 0.02794434
v -0.009063721 0.08977796 0.02793701
v -0.01474487 0.07092374 0.04539734
v -0.02934875 0.08977796 -1.586914e-05
v -0.04770874 0.07092374 -5.249023e-05
v -0.01474487 0.07092374 0.04539734
v -0.009063721 0.08977796 0.02793701
v -0.009042358 0.08977796 -0.02793152
v -0.01471069 0.07092374 -0.04541016
v -0.04770874 0.07092374 -5.249023e-05
v -0.02934875 0.08977796 -1.586914e-05
v 0.01477356 0.07092374 -0.0453833
v -0.01471069 0.07092374 -0.04541016
v -0.009042358 0.08977796 -0.02793152
v 0.009101562 0.08977796 -0.02792419
v 0.01477356 -0.001036704 -0.0453833
v 0.01477356 0.07092374 -0.0453833
v 0.04776062 0.07092374 -1.220703e-06
v 0.04776062 -0.001036704 -1.220703e-06
v 0.01473999 0.07092374 0.04540832
v 0.01473999 -0.001036704 0.04540832
v 0.04776062 -0.001036704 -1.220703e-06
v 0.04776062 0.07092374 -1.220703e-06
v 0.01473999 -0.001036704 0.04540832
v 0.01473999 0.07092374 0.04540832
v -0.01474487 0.07092374 0.04539734
v -0.01474426 -0.001036704 0.04539734
v -0.04770874 0.07092374 -5.249023e-05
v -0.04770874 -0.001036704 -5.249023e-05
v -0.01474426 -0.001036704 0.04539734
v -0.01474487 0.07092374 0.04539734
v -0.01471069 0.07092374 -0.04541016
v -0.01471069 -0.001036704 -0.04541016
v -0.04770874 -0.001036704 -5.249023e-05
v -0.04770874 0.07092374 -5.249023e-05
v -0.01471069 0.07092374 -0.04541016
v 0.01477356 0.07092374 -0.0453833
v 0.01477356 -0.001036704 -0.0453833
v -0.01471069 -0.001036704 -0.04541016
v 0.01307678 1.914895 0.04026856
v -0.01307007 1.914895 0.04025879
v -0.009063721 1.896243 0.02793701
v 0.00908081 1.896243 0.02794434
v -0.01307007 1.914895 0.04025879
v -0.04230408 1.914895 -2.624512e-05
v -0.02934875 1.896243 -1.586914e-05
v -0.009063721 1.896243 0.02793701
v -0.01304016 1.914895 -0.04025574
v -0.009042358 1.896243 -0.02793152
v -0.02934875 1.896243 -1.586914e-05
v -0.04230408 1.914895 -2.624512e-05
v 0.01310669 1.914895 -0.04024597
v 0.009101562 1.896243 -0.02792419
v -0.009042358 1.896243 -0.02793152
v -0.01304016 1.914895 -0.04025574
v 0.01310669 1.914895 -0.04024597
v 0.04234314 1.914895 4.882812e-06
v 0.02938721 1.896243 6.103515e-06
v 0.009101562 1.896243 -0.02792419
v 0.01307678 1.914895 0.04026856
v 0.00908081 1.896243 0.02794434
v 0.02938721 1.896243 6.103515e-06
v 0.04234314 1.914895 4.882812e-06
v 0.01307678 1.914895 0.04026856
v 0.01299561 2.335709 0.0399884
v -0.01297607 2.335709 0.03997925
v -0.01307007 1.914895 0.04025879
v -0.01297607 2.335709 0.03997925
v -0.04200989 2.335709 -2.075195e-05
v -0.04230408 1.914895 -2.624512e-05
v -0.01307007 1.914895 0.04025879
v -0.04200989 2.335709 -2.075195e-05
v -0.01294617 2.335709 -0.03998108
v -0.01304016 1.914895 -0.04025574
v -0.04230408 1.914895 -2.624512e-05
v -0.01304016 1.914895 -0.04025574
v -0.01294617 2.335709 -0.03998108
v 0.01302551 2.335709 -0.03997192
v 0.01310669 1.914895 -0.04024597
v 0.01310669 1.914895 -0.04024597
v 0.01302551 2.335709 -0.03997192
v 0.04205505 2.335709 1.098633e-05
v 0.04234314 1.914895 4.882812e-06
v 0.04234314 1.914895 4.882812e-06
v 0.04205505 2.335709 1.098633e-05
v 0.01299561 2.335709 0.0399884
v 0.01307678 1.914895 0.04026856
vt 0.2731934 0.003417969
vt 0.2731934 0.8494873
vt 0.246582 0.8494873
vt 0.246582 0.003417969
vt 0.2731934 0.003417969
vt 0.2868652 0.003417969
vt 0.2868652 0.8494873
vt 0.2731934 0.8494873
vt 0.246582 0.8494873
vt 0.246582 0.003417969
vt 0.3381348 0.7487793
vt 0.3381348 0.7158203
vt 0.3693848 0.7385254
vt 0.3693848 0.7587891
vt 0.3381348 0.7814941
vt 0.3066406 0.7587891
vt 0.3066406 0.7385254
vt 0.2021484 0.8494873
vt 0.2021484 0.003417969
vt 0.2159424 0.003417969
vt 0.2159424 0.8494873
vt 0.243042 0.003417969
vt 0.243042 0.8494873
vt 0.243042 0.003417969
vt 0.243042 0.8494873
vt 0.2159424 0.8494873
vt 0.2159424 0.003417969
vt 0.34375 0.6125488
vt 0.3706055 0.6125488
vt 0.3520508 0.7070312
vt 0.34375 0.7070312
vt 0.3400879 0.6125488
vt 0.3400879 0.7070312
vt 0.3312988 0.7070312
vt 0.3127441 0.6125488
vt 0.3115234 0.6125488
vt 0.3300781 0.7070312
vt 0.3200684 0.7070312
vt 0.2980957 0.6125488
vt 0.3706055 0.6125488
vt 0.3520508 0.7070312
vt 0.34375 0.7070312
vt 0.34375 0.6125488
vt 0.3400879 0.6125488
vt 0.3400879 0.7070312
vt 0.3312988 0.7070312
vt 0.3127441 0.6125488
vt 0.3535156 0.7070312
vt 0.3720703 0.6125488
vt 0.3857422 0.6125488
vt 0.3635254 0.7070312
vt 0.3706055 0.5837402
vt 0.3706055 0.5969238
vt 0.34375 0.5969238
vt 0.34375 0.5837402
vt 0.3127441 0.5969238
vt 0.3127441 0.5837402
vt 0.3400879 0.5837402
vt 0.3400879 0.5969238
vt 0.3115234 0.5969238
vt 0.2980957 0.5969238
vt 0.2980957 0.5837402
vt 0.3115234 0.5837402
vt 0.3706055 0.5969238
vt 0.34375 0.5969238
vt 0.34375 0.5837402
vt 0.3706055 0.5837402
vt 0.3127441 0.5969238
vt 0.3127441 0.5837402
vt 0.3400879 0.5837402
vt 0.3400879 0.5969238
vt 0.3857422 0.5969238
vt 0.3720703 0.5969238
vt 0.3720703 0.5837402
vt 0.3857422 0.5837402
vt 0.34375 0.5979004
vt 0.3706055 0.5979004
vt 0.3706055 0.6118164
vt 0.34375 0.6118164
vt 0.3400879 0.6118164
vt 0.3127441 0.6118164
vt 0.3127441 0.5979004
vt 0.3400879 0.5979004
vt 0.3115234 0.6118164
vt 0.2980957 0.6118164
vt 0.2980957 0.5979004
vt 0.3115234 0.5979004
vt 0.3706055 0.6118164
vt 0.34375 0.6118164
vt 0.34375 0.5979004
vt 0.3706055 0.5979004
vt 0.3400879 0.6118164
vt 0.3127441 0.6118164
vt 0.3127441 0.5979004
vt 0.3400879 0.5979004
vt 0.3857422 0.5979004
vt 0.3857422 0.6118164
vt 0.3720703 0.6118164
vt 0.3720703 0.5979004
vt 0.4035645 0.2167969
vt 0.4035645 0.2021484
vt 0.4580078 0.2021484
vt 0.4580078 0.2167969
vt 0.3476562 0.2167969
vt 0.3476562 0.2021484
vt 0.402832 0.2021484
vt 0.402832 0.2167969
vt 0.3466797 0.2021484
vt 0.3466797 0.2167969
vt 0.3193359 0.2167969
vt 0.3193359 0.2021484
vt 0.4035645 0.2167969
vt 0.4035645 0.2021484
vt 0.4580078 0.2021484
vt 0.4580078 0.2167969
vt 0.3476562 0.2167969
vt 0.3476562 0.2021484
vt 0.402832 0.2021484
vt 0.402832 0.2167969
vt 0.4587402 0.2021484
vt 0.486084 0.2021484
vt 0.486084 0.2167969
vt 0.4587402 0.2167969
vt 0.4580078 0.1435547
vt 0.4580078 0.2001953
vt 0.4035645 0.2001953
vt 0.4035645 0.1435547
vt 0.3476562 0.2001953
vt 0.3476562 0.1435547
vt 0.402832 0.1435547
vt 0.402832 0.2001953
vt 0.3466797 0.1435547
vt 0.3466797 0.2001953
vt 0.3193359 0.2001953
vt 0.3193359 0.1435547
vt 0.4035645 0.2001953
vt 0.4035645 0.1435547
vt 0.4580078 0.1435547
vt 0.4580078 0.2001953
vt 0.3476562 0.2001953
vt 0.3476562 0.1435547
vt 0.402832 0.1435547
vt 0.402832 0.2001953
vt 0.486084 0.2001953
vt 0.4587402 0.2001953
vt 0.4587402 0.1435547
vt 0.486084 0.1435547
vt 0.3115234 0.4013672
vt 0.2980957 0.4013672
vt 0.2980957 0.3891602
vt 0.3115234 0.3891602
vt 0.3706055 0.4013672
vt 0.34375 0.4013672
vt 0.34375 0.3891602
vt 0.3706055 0.3891602
vt 0.3127441 0.4013672
vt 0.3127441 0.3891602
vt 0.3400879 0.3891602
vt 0.3400879 0.4013672
vt 0.3720703 0.4013672
vt 0.3720703 0.3891602
vt 0.3857422 0.3891602
vt 0.3857422 0.4013672
vt 0.3706055 0.4013672
vt 0.34375 0.4013672
vt 0.34375 0.3891602
vt 0.3706055 0.3891602
vt 0.3127441 0.4013672
vt 0.3127441 0.3891602
vt 0.3400879 0.3891602
vt 0.3400879 0.4013672
vt 0.3115234 0.402832
vt 0.3115234 0.5830078
vt 0.2980957 0.5830078
vt 0.2980957 0.402832
vt 0.3706055 0.5830078
vt 0.34375 0.5830078
vt 0.34375 0.402832
vt 0.3706055 0.402832
vt 0.3400879 0.5830078
vt 0.3127441 0.5830078
vt 0.3127441 0.402832
vt 0.3400879 0.402832
vt 0.3857422 0.402832
vt 0.3857422 0.5830078
vt 0.3720703 0.5830078
vt 0.3720703 0.402832
vt 0.3706055 0.402832
vt 0.3706055 0.5830078
vt 0.34375 0.5830078
vt 0.34375 0.402832
vt 0.3400879 0.402832
vt 0.3400879 0.5830078
vt 0.3127441 0.5830078
vt 0.3127441 0.402832
vn -0.8147658 -0.007834287 0.5797373
vn -0.8147658 -0.007834287 0.5797373
vn -0.8147658 -0.007834287 0.5797373
vn -0.8147658 -0.007834287 0.5797373
vn 0.4440809 -0.007790894 -0.8959528
vn -0.007812023 -0.007812023 -0.999939
vn -0.007812023 -0.007812023 -0.999939
vn 0.4440809 -0.007790894 -0.8959528
vn 0.801858 -0.007861353 -0.5974629
vn 0.801858 -0.007861353 -0.5974629
vn -0.007873528 0.999938 -0.007873528
vn -0.007873528 0.999938 -0.007873528
vn -0.007873528 0.999938 -0.007873528
vn -0.007873528 0.999938 -0.007873528
vn -0.007873528 0.999938 -0.007873528
vn -0.007873528 0.999938 -0.007873528
vn -0.007873528 0.999938 -0.007873528
vn -0.007936008 -0.007936008 0.999937
vn -0.007936008 -0.007936008 0.999937
vn 0.2924102 -0.007902978 0.9562603
vn 0.5961588 -0.007948784 0.8028272
vn 0.8093963 -0.007935259 0.5872092
vn 0.8093963 -0.007935259 0.5872092
vn -0.8073668 -0.007763143 -0.5899988
vn -0.8073668 -0.007763143 -0.5899988
vn -0.8073668 -0.007763143 -0.5899988
vn -0.8073668 -0.007763143 -0.5899988
vn 0.8014371 0.1021439 -0.5892921
vn 0.8014371 0.1021439 -0.5892921
vn 0.8014371 0.1021439 -0.5892921
vn 0.8014371 0.1021439 -0.5892921
vn 0.8088617 0.1030902 0.5788913
vn 0.8088617 0.1030902 0.5788913
vn 0.8088617 0.1030902 0.5788913
vn 0.8060934 0.1037546 0.582622
vn -0.007935009 0.1269601 0.9918761
vn -0.007935009 0.1269601 0.9918761
vn -0.007935009 0.1269601 0.9918761
vn -0.007935009 0.1269601 0.9918761
vn -0.8142412 0.1017802 0.5715348
vn -0.8142412 0.1017802 0.5715348
vn -0.8142412 0.1017802 0.5715348
vn -0.8142412 0.1017802 0.5715348
vn -0.800545 0.1010397 -0.5906934
vn -0.800545 0.1010397 -0.5906934
vn -0.800545 0.1010397 -0.5906934
vn -0.800545 0.1010397 -0.5906934
vn -0.007812023 0.1249924 -0.9921269
vn -0.007812023 0.1249924 -0.9921269
vn -0.007812023 0.1249924 -0.9921269
vn -0.007812023 0.1249924 -0.9921269
vn 0.616023 -0.6394163 -0.4600678
vn 0.616023 -0.6394163 -0.4600678
vn 0.616023 -0.6394163 -0.4600678
vn 0.616023 -0.6394163 -0.4600678
vn 0.6204146 -0.6439747 0.4476409
vn 0.6204146 -0.6439747 0.4476409
vn 0.6204146 -0.6439747 0.4476409
vn 0.6204146 -0.6439747 0.4476409
vn -0.007856014 -0.6991853 0.7148973
vn -0.007856014 -0.6991853 0.7148973
vn -0.007856014 -0.6991853 0.7148973
vn -0.007856014 -0.6991853 0.7148973
vn -0.6299355 -0.6377124 0.4432879
vn -0.6299355 -0.6377124 0.4432879
vn -0.6299355 -0.6377124 0.4432879
vn -0.6299355 -0.6377124 0.4432879
vn -0.6255619 -0.6332849 -0.4556562
vn -0.6255619 -0.6332849 -0.4556562
vn -0.6255619 -0.6332849 -0.4556562
vn -0.6255619 -0.6332849 -0.4556562
vn -0.007768294 -0.6913782 -0.7224513
vn -0.007768294 -0.6913782 -0.7224513
vn -0.007768294 -0.6913782 -0.7224513
vn -0.007768294 -0.6913782 -0.7224513
vn 0.6468535 0.5916343 -0.4811959
vn 0.6468535 0.5916343 -0.4811959
vn 0.6468535 0.5916343 -0.4811959
vn 0.6468535 0.5916343 -0.4811959
vn 0.6517385 0.5961023 0.4689338
vn 0.6517385 0.5961023 0.4689338
vn 0.6517385 0.5961023 0.4689338
vn 0.6517385 0.5961023 0.4689338
vn -0.007926778 0.6579225 0.7530439
vn -0.007926778 0.6579225 0.7530439
vn -0.007926778 0.6579225 0.7530439
vn -0.007926778 0.6579225 0.7530439
vn -0.6607417 0.589948 0.4640924
vn -0.6607417 0.589948 0.4640924
vn -0.6607417 0.589948 0.4640924
vn -0.6607417 0.589948 0.4640924
vn -0.6558898 0.5856159 -0.4763009
vn -0.6558898 0.5856159 -0.4763009
vn -0.6558898 0.5856159 -0.4763009
vn -0.6558898 0.5856159 -0.4763009
vn -0.007832845 0.6501261 -0.759786
vn -0.007832845 0.6501261 -0.759786
vn -0.007832845 0.6501261 -0.759786
vn -0.007832845 0.6501261 -0.759786
vn 0.6308018 0.6150318 -0.4731014
vn 0.6308018 0.6150318 -0.4731014
vn 0.6308018 0.6150318 -0.4731014
vn 0.6308018 0.6150318 -0.4731014
vn 0.6354813 0.6195942 0.4607239
vn 0.6354813 0.6195942 0.4607239
vn 0.6354813 0.6195942 0.4607239
vn 0.6354813 0.6195942 0.4607239
vn -0.007894355 0.6789145 0.7341749
vn -0.007894355 0.6789145 0.7341749
vn -0.007894355 0.6789145 0.7341749
vn -0.007894355 0.6789145 0.7341749
vn -0.6448103 0.6133562 0.4560853
vn -0.6448103 0.6133562 0.4560853
vn -0.6448103 0.6133562 0.4560853
vn -0.6448103 0.6133562 0.4560853
vn -0.6401563 0.6089292 -0.4684071
vn -0.6401563 0.6089292 -0.4684071
vn -0.6401563 0.6089292 -0.4684071
vn -0.6401563 0.6089292 -0.4684071
vn -0.007803456 0.6710972 -0.7413283
vn -0.007803456 0.6710972 -0.7413283
vn -0.007803456 0.6710972 -0.7413283
vn -0.007803456 0.6710972 -0.7413283
vn 0.801858 -0.007861353 -0.5974629
vn 0.801858 -0.007861353 -0.5974629
vn 0.801858 -0.007861353 -0.5974629
vn 0.801858 -0.007861353 -0.5974629
vn 0.8093963 -0.007935259 0.5872092
vn 0.8093963 -0.007935259 0.5872092
vn 0.8093963 -0.007935259 0.5872092
vn 0.8093963 -0.007935259 0.5872092
vn -0.007936008 -0.007936008 0.999937
vn -0.007936008 -0.007936008 0.999937
vn -0.007936008 -0.007936008 0.999937
vn -0.007936008 -0.007936008 0.999937
vn -0.8147658 -0.007834287 0.5797373
vn -0.8147658 -0.007834287 0.5797373
vn -0.8147658 -0.007834287 0.5797373
vn -0.8147658 -0.007834287 0.5797373
vn -0.8073668 -0.007763143 -0.5899988
vn -0.8073668 -0.007763143 -0.5899988
vn -0.8073668 -0.007763143 -0.5899988
vn -0.8073668 -0.007763143 -0.5899988
vn -0.007812023 -0.007812023 -0.999939
vn -0.007812023 -0.007812023 -0.999939
vn -0.007812023 -0.007812023 -0.999939
vn -0.007812023 -0.007812023 -0.999939
vn -0.007889193 -0.5601327 0.8283653
vn -0.007889193 -0.5601327 0.8283653
vn -0.007889193 -0.5601327 0.8283653
vn -0.007889193 -0.5601327 0.8283653
vn -0.7117634 -0.4927593 0.5005809
vn -0.7117634 -0.4927593 0.5005809
vn -0.7117634 -0.4927593 0.5005809
vn -0.7117634 -0.4927593 0.5005809
vn -0.7061694 -0.4888865 -0.5121668
vn -0.7061694 -0.4888865 -0.5121668
vn -0.7061694 -0.4888865 -0.5121668
vn -0.7061694 -0.4888865 -0.5121668
vn -0.007787113 -0.552885 -0.8332212
vn -0.007787113 -0.552885 -0.8332212
vn -0.007787113 -0.552885 -0.8332212
vn -0.007787113 -0.552885 -0.8332212
vn 0.6982594 -0.4942735 -0.5178103
vn 0.6982594 -0.4942735 -0.5178103
vn 0.6982594 -0.4942735 -0.5178103
vn 0.6982594 -0.4942735 -0.5178103
vn 0.7039148 -0.4982768 0.5061859
vn 0.7039148 -0.4982768 0.5061859
vn 0.7039148 -0.4982768 0.5061859
vn 0.7039148 -0.4982768 0.5061859
vn -0.007936008 -0.007936008 0.999937
vn -0.007936008 -0.007936008 0.999937
vn -0.007936008 -0.007936008 0.999937
vn -0.007936008 -0.007936008 0.999937
vn -0.8147658 -0.007834287 0.5797373
vn -0.8147658 -0.007834287 0.5797373
vn -0.8147658 -0.007834287 0.5797373
vn -0.8147658 -0.007834287 0.5797373
vn -0.8073668 -0.007763143 -0.5899988
vn -0.8073668 -0.007763143 -0.5899988
vn -0.8073668 -0.007763143 -0.5899988
vn -0.8073668 -0.007763143 -0.5899988
vn -0.007812023 -0.007812023 -0.999939
vn -0.007812023 -0.007812023 -0.999939
vn -0.007812023 -0.007812023 -0.999939
vn -0.007812023 -0.007812023 -0.999939
vn 0.801858 -0.007861353 -0.5974629
vn 0.801858 -0.007861353 -0.5974629
vn 0.801858 -0.007861353 -0.5974629
vn 0.801858 -0.007861353 -0.5974629
vn 0.8093963 -0.007935259 0.5872092
vn 0.8093963 -0.007935259 0.5872092
vn 0.8093963 -0.007935259 0.5872092
vn 0.8093963 -0.007935259 0.5872092
f 1/1/1 2/2/2 3/3/3
f 3/3/3 4/4/4 1/1/1
f 5/5/5 6/6/6 7/7/7
f 7/7/7 8/8/8 5/5/5
f 5/5/5 8/8/8 9/9/9
f 9/9/9 10/10/10 5/5/5
f 11/11/11 12/12/12 13/13/13
f 11/11/11 13/13/13 14/14/14
f 11/11/11 14/14/14 15/15/15
f 11/11/11 15/15/15 16/16/16
f 11/11/11 16/16/16 17/17/17
f 11/11/11 17/17/17 12/12/12
f 18/18/18 19/19/19 20/20/20
f 20/20/20 21/21/21 18/18/18
f 21/21/21 20/20/20 22/22/22
f 22/22/22 23/23/23 21/21/21
f 24/24/24 25/25/25 26/26/26
f 26/26/26 27/27/27 24/24/24
f 28/28/28 29/29/29 30/30/30
f 30/30/30 31/31/31 28/28/28
f 32/32/32 33/33/33 34/34/34
f 34/34/34 35/35/35 32/32/32
f 36/36/36 37/37/37 38/38/38
f 38/38/38 39/39/39 36/36/36
f 40/40/40 41/41/41 42/42/42
f 42/42/42 43/43/43 40/40/40
f 44/44/44 45/45/45 46/46/46
f 46/46/46 47/47/47 44/44/44
f 48/48/48 49/49/49 50/50/50
f 50/50/50 51/51/51 48/48/48
f 52/52/52 53/53/53 54/54/54
f 54/54/54 55/55/55 52/52/52
f 56/56/56 57/57/57 58/58/58
f 58/58/58 59/59/59 56/56/56
f 60/60/60 61/61/61 62/62/62
f 62/62/62 63/63/63 60/60/60
f 64/64/64 65/65/65 66/66/66
f 66/66/66 67/67/67 64/64/64
f 68/68/68 69/69/69 70/70/70
f 70/70/70 71/71/71 68/68/68
f 72/72/72 73/73/73 74/74/74
f 74/74/74 75/75/75 72/72/72
f 76/76/76 77/77/77 78/78/78
f 78/78/78 79/79/79 76/76/76
f 80/80/80 81/81/81 82/82/82
f 82/82/82 83/83/83 80/80/80
f 84/84/84 85/85/85 86/86/86
f 86/86/86 87/87/87 84/84/84
f 88/88/88 89/89/89 90/90/90
f 90/90/90 91/91/91 88/88/88
f 92/92/92 93/93/93 94/94/94
f 94/94/94 95/95/95 92/92/92
f 96/96/96 97/97/97 98/98/98
f 98/98/98 99/99/99 96/96/96
f 100/100/100 101/101/101 102/102/102
f 102/102/102 103/103/103 100/100/100
f 104/104/104 105/105/105 106/106/106
f 106/106/106 107/107/107 104/104/104
f 108/108/108 109/109/109 110/110/110
f 110/110/110 111/111/111 108/108/108
f 112/112/112 113/113/113 114/114/114
f 114/114/114 115/115/115 112/112/112
f 116/116/116 117/117/117 118/118/118
f 118/118/118 119/119/119 116/116/116
f 120/120/120 121/121/121 122/122/122
f 122/122/122 123/123/123 120/120/120
f 124/124/124 125/125/125 126/126/126
f 126/126/126 127/127/127 124/124/124
f 128/128/128 129/129/129 130/130/130
f 130/130/130 131/131/131 128/128/128
f 132/132/132 133/133/133 134/134/134
f 134/134/134 135/135/135 132/132/132
f 136/136/136 137/137/137 138/138/138
f 138/138/138 139/139/139 136/136/136
f 140/140/140 141/141/141 142/142/142
f 142/142/142 143/143/143 140/140/140
f 144/144/144 145/145/145 146/146/146
f 146/146/146 147/147/147 144/144/144
f 148/148/148 149/149/149 150/150/150
f 150/150/150 151/151/151 148/148/148
f 152/152/152 153/153/153 154/154/154
f 154/154/154 155/155/155 152/152/152
f 156/156/156 157/157/157 158/158/158
f 158/158/158 159/159/159 156/156/156
f 160/160/160 161/161/161 162/162/162
f 162/162/162 163/163/163 160/160/160
f 164/164/164 165/165/165 166/166/166
f 166/166/166 167/167/167 164/164/164
f 168/168/168 169/169/169 170/170/170
f 170/170/170 171/171/171 168/168/168
f 172/172/172 173/173/173 174/174/174
f 174/174/174 175/175/175 172/172/172
f 176/176/176 177/177/177 178/178/178
f 178/178/178 179/179/179 176/176/176
f 180/180/180 181/181/181 182/182/182
f 182/182/182 183/183/183 180/180/180
f 184/184/184 185/185/185 186/186/186
f 186/186/186 187/187/187 184/184/184
f 188/188/188 189/189/189 190/190/190
f 190/190/190 191/191/191 188/188/188
f 192/192/192 193/193/193 194/194/194
f 194/194/194 195/195/195 192/192/192
