# Converted from D:\Dwonloads\umodel_lostark_v7\extracted\KamenMap_Unity_20260612_172048\RawUModel\GltfMeshes_PngTextures\BG_RAD_KAMEN_D\StaticMesh3\bg_rad_kamen_column01a_sm_hhk.gltf
mtllib bg_rad_kamen_column01a_sm_hhk.mtl
o bg_rad_kamen_column01a_sm_hhk_0
usemtl BG_RAD_KAMEN_D__bg_rad_kamen_housedome01_mi_hhk
v 0.2519995 -1.543056e-17 -0.3599998
v 0.2519995 0.2618181 -0.3599998
v 0.3599994 0.2618181 0
v 0.3599994 -2.204364e-17 0
v -0.2520007 1.543055e-17 -0.3599998
v -0.2520005 0.2618181 -0.36
v 0.2519995 0.2618181 -0.3599998
v 0.2519995 -1.543056e-17 -0.3599998
v 0.3599994 0.2618181 0
v 0.2519995 0.2618181 -0.3599998
v 0.1825567 0.4000001 -0.2666664
v 0.2625566 0.4000001 0
v 0.2519995 0.2618181 -0.3599998
v -0.2520005 0.2618181 -0.36
v -0.1825576 0.3999999 -0.2666666
v 0.1825567 0.4000001 -0.2666664
v 0.3599994 -2.204364e-17 0
v 0.3599994 0.2618181 0
v 0.2519994 0.2618181 0.3600003
v 0.2519995 -1.543056e-17 0.3600003
v 0.2519994 0.2618181 0.3600003
v 0.3599994 0.2618181 0
v 0.2625566 0.4000001 0
v 0.1825565 0.4000001 0.2666669
v 0.1825567 0.4000001 -0.2666664
v -0.1825576 0.3999999 -0.2666666
v -0.2625577 0.3999999 0
v 0.2625566 0.4000001 0
v -0.2520006 1.543055e-17 0.3600003
v -0.2520007 0.2618181 0.3600003
v -0.3600006 0.2618179 0
v -0.3600006 -3.051758e-07 0
v 0.2519995 -1.543056e-17 0.3600003
v 0.2519994 0.2618181 0.3600003
v -0.2520007 0.2618181 0.3600003
v -0.2520006 1.543055e-17 0.3600003
v -0.3600006 0.2618179 0
v -0.2520007 0.2618181 0.3600003
v -0.1825578 0.3999999 0.2666669
v -0.2625577 0.3999999 0
v -0.2520007 0.2618181 0.3600003
v 0.2519994 0.2618181 0.3600003
v 0.1825565 0.4000001 0.2666669
v -0.1825578 0.3999999 0.2666669
v -0.3600006 -3.051758e-07 0
v -0.3600006 0.2618179 0
v -0.2520005 0.2618181 -0.36
v -0.2520007 1.543055e-17 -0.3599998
v -0.2520005 0.2618181 -0.36
v -0.3600006 0.2618179 0
v -0.2625577 0.3999999 0
v -0.1825576 0.3999999 -0.2666666
v -0.1825578 0.3999999 0.2666669
v 0.1825565 0.4000001 0.2666669
v 0.2625566 0.4000001 0
v -0.2625577 0.3999999 0
v 0.2519995 -1.543056e-17 -0.3599998
v 0.3599994 -2.204364e-17 0
v -0.3600006 -3.051758e-07 0
v -0.2520007 1.543055e-17 -0.3599998
v -0.2520006 1.543055e-17 0.3600003
v -0.3600006 -3.051758e-07 0
v 0.3599994 -2.204364e-17 0
v 0.2519995 -1.543056e-17 0.3600003
vt 0.6884766 0.862915
vt 0.6884766 0.9332275
vt 0.5888672 0.9332275
vt 0.5888672 0.862915
vt 0.8349609 0.862915
vt 0.8349609 0.9332275
vt 0.7016602 0.9332275
vt 0.7016602 0.862915
vt 0.5888672 0.9452515
vt 0.6884766 0.9452515
vt 0.6699219 0.9882202
vt 0.5966797 0.9882202
vt 0.7016602 0.9452515
vt 0.8349609 0.9452515
vt 0.8164062 0.9882202
vt 0.7202148 0.9882202
vt 0.5761719 0.862915
vt 0.5761719 0.9332275
vt 0.4770508 0.9332275
vt 0.4770508 0.862915
vt 0.4770508 0.9452515
vt 0.5761719 0.9452515
vt 0.5688477 0.9882202
vt 0.4953613 0.9882202
vt 0.5009766 0.2543945
vt 0.4282227 0.2543945
vt 0.4121094 0.2006836
vt 0.5170898 0.2006836
vt 0.6884766 0.862915
vt 0.6884766 0.9332275
vt 0.5888672 0.9332275
vt 0.5888672 0.862915
vt 0.8349609 0.862915
vt 0.8349609 0.9332275
vt 0.7016602 0.9332275
vt 0.7016602 0.862915
vt 0.5888672 0.9452515
vt 0.6884766 0.9452515
vt 0.6699219 0.9882202
vt 0.5966797 0.9882202
vt 0.7016602 0.9452515
vt 0.8349609 0.9452515
vt 0.8164062 0.9882202
vt 0.7202148 0.9882202
vt 0.5761719 0.862915
vt 0.5761719 0.9332275
vt 0.4770508 0.9332275
vt 0.4770508 0.862915
vt 0.4770508 0.9452515
vt 0.5761719 0.9452515
vt 0.5688477 0.9882202
vt 0.4953613 0.9882202
vt 0.5009766 0.2543945
vt 0.4282227 0.2543945
vt 0.4121094 0.2006836
vt 0.5170898 0.2006836
vt 0.5009766 0.2543945
vt 0.5170898 0.2006836
vt 0.4121094 0.2006836
vt 0.4282227 0.2543945
vt 0.5009766 0.2543945
vt 0.5170898 0.2006836
vt 0.4121094 0.2006836
vt 0.4282227 0.2543945
vn 0.9540285 -0.007884533 -0.2996123
vn 0.9540285 -0.007884533 -0.2996123
vn 0.9540285 -0.007884533 -0.2996123
vn 0.9540285 -0.007884533 -0.2996123
vn -0.007812023 -0.007812023 -0.999939
vn -0.007812023 -0.007812023 -0.999939
vn -0.007812023 -0.007812023 -0.999939
vn -0.007812023 -0.007812023 -0.999939
vn 0.794026 0.5558182 -0.2461481
vn 0.794026 0.5558182 -0.2461481
vn 0.794026 0.5558182 -0.2461481
vn 0.794026 0.5558182 -0.2461481
vn -0.007820619 0.5474433 -0.8368062
vn -0.007820619 0.5474433 -0.8368062
vn -0.007820619 0.5474433 -0.8368062
vn -0.007820619 0.5474433 -0.8368062
vn 0.9584478 -0.007921056 0.285158
vn 0.9584478 -0.007921056 0.285158
vn 0.9584478 -0.007921056 0.285158
vn 0.9584478 -0.007921056 0.285158
vn 0.7970468 0.5579328 0.2311436
vn 0.7970468 0.5579328 0.2311436
vn 0.7970468 0.5579328 0.2311436
vn 0.7970468 0.5579328 0.2311436
vn -0.007873528 0.999938 -0.007873528
vn -0.007873528 0.999938 -0.007873528
vn -0.007936008 0.999937 -0.007936008
vn -0.007936008 0.999937 -0.007936008
vn -0.9597082 -0.007802505 0.2808902
vn -0.9597082 -0.007802505 0.2808902
vn -0.9597082 -0.007802505 0.2808902
vn -0.9597082 -0.007802505 0.2808902
vn -0.007873528 -0.007873528 0.999938
vn -0.007873528 -0.007873528 0.999938
vn -0.007873528 -0.007873528 0.999938
vn -0.007873528 -0.007873528 0.999938
vn -0.8027516 0.5509079 0.2282333
vn -0.8027516 0.5509079 0.2282333
vn -0.8027516 0.5509079 0.2282333
vn -0.8027516 0.5509079 0.2282333
vn -0.00792404 0.5546828 0.8320242
vn -0.00792404 0.5546828 0.8320242
vn -0.00792404 0.5546828 0.8320242
vn -0.00792404 0.5546828 0.8320242
vn -0.9554137 -0.00776759 -0.2951685
vn -0.9554137 -0.00776759 -0.2951685
vn -0.9554137 -0.00776759 -0.2951685
vn -0.9554137 -0.00776759 -0.2951685
vn -0.7997848 0.5488719 -0.2430719
vn -0.7997848 0.5488719 -0.2430719
vn -0.7997848 0.5488719 -0.2430719
vn -0.7997848 0.5488719 -0.2430719
vn -0.007873528 0.999938 -0.007873528
vn -0.007873528 0.999938 -0.007873528
vn -0.007936008 0.999937 -0.007936008
vn -0.007936008 0.999937 -0.007936008
vn -0.007812023 -0.999939 -0.007812023
vn -0.007812023 -0.999939 -0.007812023
vn -0.007812023 -0.999939 -0.007812023
vn -0.007812023 -0.999939 -0.007812023
vn -0.007812023 -0.999939 -0.007812023
vn -0.007812023 -0.999939 -0.007812023
vn -0.007812023 -0.999939 -0.007812023
vn -0.007812023 -0.999939 -0.007812023
f 1/1/1 2/2/2 3/3/3
f 3/3/3 4/4/4 1/1/1
f 5/5/5 6/6/6 7/7/7
f 7/7/7 8/8/8 5/5/5
f 9/9/9 10/10/10 11/11/11
f 11/11/11 12/12/12 9/9/9
f 13/13/13 14/14/14 15/15/15
f 15/15/15 16/16/16 13/13/13
f 17/17/17 18/18/18 19/19/19
f 19/19/19 20/20/20 17/17/17
f 21/21/21 22/22/22 23/23/23
f 23/23/23 24/24/24 21/21/21
f 25/25/25 26/26/26 27/27/27
f 27/27/27 28/28/28 25/25/25
f 29/29/29 30/30/30 31/31/31
f 31/31/31 32/32/32 29/29/29
f 33/33/33 34/34/34 35/35/35
f 35/35/35 36/36/36 33/33/33
f 37/37/37 38/38/38 39/39/39
f 39/39/39 40/40/40 37/37/37
f 41/41/41 42/42/42 43/43/43
f 43/43/43 44/44/44 41/41/41
f 45/45/45 46/46/46 47/47/47
f 47/47/47 48/48/48 45/45/45
f 49/49/49 50/50/50 51/51/51
f 51/51/51 52/52/52 49/49/49
f 53/53/53 54/54/54 55/55/55
f 55/55/55 56/56/56 53/53/53
f 57/57/57 58/58/58 59/59/59
f 59/59/59 60/60/60 57/57/57
f 61/61/61 62/62/62 63/63/63
f 63/63/63 64/64/64 61/61/61
