# Converted from D:\Dwonloads\umodel_lostark_v7\extracted\KamenMap_Unity_20260612_172048\RawUModel\GltfMeshes_PngTextures\BG_RAD_KAMEN_D\StaticMesh3\bg_rad_kamen_deco01_sm_hhk.gltf
mtllib bg_rad_kamen_deco01_sm_hhk.mtl
o bg_rad_kamen_deco01_sm_hhk_0
usemtl BG_RAD_KAMEN_D__bg_rad_kamen_housedome01c_mi_hhk
v -0.9199999 3.404867e-07 1.6
v 0.375023 5.428222e-08 -1.156002
v -0.9199999 3.404867e-07 -1.6
v 0.375023 5.428222e-08 1.156002
v 1.4 5.420134e-08 -0.3848802
v 1.4 5.420134e-08 0.3848803
vt 0.1605225 0.9943008
vt 0.7451172 0.7248535
vt 0.8393555 0.9943008
vt 0.2546387 0.7248535
vt 0.581543 0.5114746
vt 0.4182129 0.5114746
vn -0.007873528 0.999938 -0.007873528
vn -0.007873528 0.999938 -0.007873528
vn -0.007873528 0.999938 -0.007873528
vn -0.007873528 0.999938 -0.007873528
vn -0.007873528 0.999938 -0.007873528
vn -0.007873528 0.999938 -0.007873528
f 1/1/1 2/2/2 3/3/3
f 2/2/2 1/1/1 4/4/4
f 2/2/2 4/4/4 5/5/5
f 5/5/5 4/4/4 6/6/6
