# Converted from D:\Dwonloads\umodel_lostark_v7\extracted\KamenMap_Unity_20260612_172048\RawUModel\GltfMeshes_PngTextures\BG_RAD_KAMEN_D\StaticMesh3\bg_rad_kamen_deco05_sm_jjh.gltf
mtllib bg_rad_kamen_deco05_sm_jjh.mtl
o bg_rad_kamen_deco05_sm_jjh_0
usemtl BG_RAD_KAMEN_D__bg_rad_kamen_gate01_mi_jjh
v -0.1343376 -0.2592723 0
v -0.1343376 -0.2047333 -0.1069336
v -3.814697e-07 -0.2047333 -0.1069336
v -3.814697e-07 -0.2592723 0
v 0.1343376 -0.2047333 0.1069336
v 0.1343376 -0.2592723 0
v 0.1343376 0.2592722 0
v 0.1343376 0.2592722 0.2135559
v 0.1343376 -0.09893509 0.2135559
v 0.1343376 -0.09893509 -0.2135559
v 0.1343376 0.2592722 -0.2135559
v 0.1343376 0.2592722 0
v 0.1343376 -0.2047333 -0.1069336
v 0.1343376 0.2592722 0.2135559
v -3.814697e-07 0.2592722 0.2135559
v -3.814697e-07 -0.09893509 0.2135559
v 0.1343376 -0.09893509 0.2135559
v 0.1343376 -0.2047333 0.1069336
v 0.1343376 -0.09893509 0.2135559
v -3.814697e-07 -0.09893509 0.2135559
v -3.814697e-07 -0.2047333 0.1069336
v 0.1343376 -0.2592723 0
v 0.1343376 -0.2047333 0.1069336
v -3.814697e-07 -0.2047333 0.1069336
v -3.814697e-07 -0.2592723 0
v 0.1343376 -0.09893509 -0.2135559
v -3.814697e-07 -0.09893509 -0.2135559
v -3.814697e-07 0.2592722 -0.2135559
v 0.1343376 0.2592722 -0.2135559
v 0.1343376 -0.2047333 -0.1069336
v -3.814697e-07 -0.2047333 -0.1069336
v -3.814697e-07 -0.09893509 -0.2135559
v 0.1343376 -0.09893509 -0.2135559
v 0.1343376 -0.2592723 0
v -3.814697e-07 -0.2592723 0
v -3.814697e-07 -0.2047333 -0.1069336
v 0.1343376 -0.2047333 -0.1069336
v -0.1343376 0.2592722 0.2135559
v -0.1343376 -0.09893509 0.2135559
v -3.814697e-07 -0.09893509 0.2135559
v -3.814697e-07 0.2592722 0.2135559
v -0.1343376 -0.2047333 0.1069336
v -3.814697e-07 -0.2047333 0.1069336
v -3.814697e-07 -0.09893509 0.2135559
v -0.1343376 -0.09893509 0.2135559
v -0.1343376 -0.2592723 0
v -3.814697e-07 -0.2592723 0
v -3.814697e-07 -0.2047333 0.1069336
v -0.1343376 -0.2047333 0.1069336
v -0.1343376 -0.09893509 -0.2135559
v -0.1343376 0.2592722 -0.2135559
v -3.814697e-07 0.2592722 -0.2135559
v -3.814697e-07 -0.09893509 -0.2135559
v -0.1343376 -0.2047333 -0.1069336
v -0.1343376 -0.09893509 -0.2135559
v -3.814697e-07 -0.09893509 -0.2135559
v -3.814697e-07 -0.2047333 -0.1069336
v -0.1343376 0.2592722 0.2135559
v -3.814697e-07 0.2592722 0.2135559
v -3.814697e-07 0.2592722 0
v -0.1343376 0.2592722 0
v -3.814697e-07 0.2592722 -0.2135559
v -0.1343376 0.2592722 -0.2135559
v -0.1343376 0.2592722 0
v -0.1343376 0.2592722 -0.2135559
v -0.1343376 -0.09893509 -0.2135559
v -0.1343376 -0.2047333 -0.1069336
v -0.1343376 -0.2592723 0
v -0.1343376 -0.2047333 0.1069336
v -0.1343376 0.2592722 0.2135559
v -0.1343376 -0.09893509 0.2135559
v -3.814697e-07 0.2592722 0
v -3.814697e-07 0.2592722 0.2135559
v 0.1343376 0.2592722 0.2135559
v 0.1343376 0.2592722 0
v -3.814697e-07 0.2592722 -0.2135559
v 0.1343376 0.2592722 -0.2135559
vt 0.8422852 0.2138672
vt 0.8422852 0.2480469
vt 0.8979492 0.2480469
vt 0.8979492 0.2138672
vt 0.7382812 0.2724609
vt 0.7724609 0.2548828
vt 0.7724609 0.4208984
vt 0.7041016 0.4208984
vt 0.7041016 0.3061523
vt 0.8408203 0.3061523
vt 0.8408203 0.4208984
vt 0.7724609 0.4208984
vt 0.8066406 0.2724609
vt 0.703125 0.4208984
vt 0.6474609 0.4208984
vt 0.6474609 0.3061523
vt 0.703125 0.3061523
vt 0.703125 0.2480469
vt 0.703125 0.3041992
vt 0.6474609 0.3041992
vt 0.6474609 0.2480469
vt 0.703125 0.2138672
vt 0.703125 0.2480469
vt 0.6474609 0.2480469
vt 0.6474609 0.2138672
vt 0.8422852 0.3061523
vt 0.8979492 0.3061523
vt 0.8979492 0.4208984
vt 0.8422852 0.4208984
vt 0.8422852 0.2480469
vt 0.8979492 0.2480469
vt 0.8979492 0.3041992
vt 0.8422852 0.3041992
vt 0.8422852 0.2138672
vt 0.8979492 0.2138672
vt 0.8979492 0.2480469
vt 0.8422852 0.2480469
vt 0.703125 0.4208984
vt 0.703125 0.3061523
vt 0.6474609 0.3061523
vt 0.6474609 0.4208984
vt 0.703125 0.2480469
vt 0.6474609 0.2480469
vt 0.6474609 0.3041992
vt 0.703125 0.3041992
vt 0.703125 0.2138672
vt 0.6474609 0.2138672
vt 0.6474609 0.2480469
vt 0.703125 0.2480469
vt 0.8422852 0.3061523
vt 0.8422852 0.4208984
vt 0.8979492 0.4208984
vt 0.8979492 0.3061523
vt 0.8422852 0.2480469
vt 0.8422852 0.3041992
vt 0.8979492 0.3041992
vt 0.8979492 0.2480469
vt 0.7041016 0.4223633
vt 0.7041016 0.4770508
vt 0.7724609 0.4770508
vt 0.7724609 0.4223633
vt 0.8408203 0.4770508
vt 0.8408203 0.4223633
vt 0.7724609 0.4208984
vt 0.8408203 0.4208984
vt 0.8408203 0.3061523
vt 0.8066406 0.2724609
vt 0.7724609 0.2548828
vt 0.7382812 0.2724609
vt 0.7041016 0.4208984
vt 0.7041016 0.3061523
vt 0.7724609 0.4770508
vt 0.7041016 0.4770508
vt 0.7041016 0.4223633
vt 0.7724609 0.4223633
vt 0.8408203 0.4770508
vt 0.8408203 0.4223633
vn -0.007736611 -0.8897103 -0.45646
vn -0.007770404 -0.7770404 -0.6294028
vn -0.007769701 -0.8391277 -0.543879
vn -0.007736611 -0.8897103 -0.45646
vn 0.999937 -0.007936008 -0.007936008
vn 0.999938 -0.007873528 -0.007873528
vn 0.999938 -0.007873528 -0.007873528
vn 0.999938 -0.007873528 -0.007873528
vn 0.999938 -0.007873528 -0.007873528
vn 0.999938 -0.007873528 -0.007873528
vn 0.999938 -0.007873528 -0.007873528
vn 0.999937 -0.007936008 -0.007936008
vn 0.999938 -0.007873528 -0.007873528
vn -0.007873528 -0.007873528 0.999938
vn -0.007873528 -0.007873528 0.999938
vn -0.007873528 -0.007873528 0.999938
vn -0.007873528 -0.007873528 0.999938
vn -0.007846577 -0.7846577 0.6198796
vn -0.007812023 -0.7187061 0.6952701
vn -0.007812023 -0.7187061 0.6952701
vn -0.007835248 -0.8462069 0.5327969
vn -0.007790894 -0.8959528 0.4440809
vn -0.007846577 -0.7846577 0.6198796
vn -0.007835248 -0.8462069 0.5327969
vn -0.007790894 -0.8959528 0.4440809
vn -0.007812023 -0.007812023 -0.999939
vn -0.007812023 -0.007812023 -0.999939
vn -0.007812023 -0.007812023 -0.999939
vn -0.007812023 -0.007812023 -0.999939
vn -0.007770404 -0.7770404 -0.6294028
vn -0.007769701 -0.8391277 -0.543879
vn -0.007727597 -0.7109389 -0.7032113
vn -0.007727597 -0.7109389 -0.7032113
vn -0.007736611 -0.8897103 -0.45646
vn -0.007736611 -0.8897103 -0.45646
vn -0.007769701 -0.8391277 -0.543879
vn -0.007770404 -0.7770404 -0.6294028
vn -0.007873528 -0.007873528 0.999938
vn -0.007873528 -0.007873528 0.999938
vn -0.007873528 -0.007873528 0.999938
vn -0.007873528 -0.007873528 0.999938
vn -0.007846577 -0.7846577 0.6198796
vn -0.007835248 -0.8462069 0.5327969
vn -0.007812023 -0.7187061 0.6952701
vn -0.007812023 -0.7187061 0.6952701
vn -0.007790894 -0.8959528 0.4440809
vn -0.007790894 -0.8959528 0.4440809
vn -0.007835248 -0.8462069 0.5327969
vn -0.007846577 -0.7846577 0.6198796
vn -0.007812023 -0.007812023 -0.999939
vn -0.007812023 -0.007812023 -0.999939
vn -0.007812023 -0.007812023 -0.999939
vn -0.007812023 -0.007812023 -0.999939
vn -0.007770404 -0.7770404 -0.6294028
vn -0.007727597 -0.7109389 -0.7032113
vn -0.007727597 -0.7109389 -0.7032113
vn -0.007769701 -0.8391277 -0.543879
vn -0.007873528 0.999938 -0.007873528
vn -0.007873528 0.999938 -0.007873528
vn -0.007873528 0.999938 -0.007873528
vn -0.007873528 0.999938 -0.007873528
vn -0.007873528 0.999938 -0.007873528
vn -0.007873528 0.999938 -0.007873528
vn -0.999939 -0.007812023 -0.007812023
vn -0.999939 -0.007812023 -0.007812023
vn -0.999939 -0.007812023 -0.007812023
vn -0.999939 -0.007812023 -0.007812023
vn -0.999939 -0.007812023 -0.007812023
vn -0.999939 -0.007812023 -0.007812023
vn -0.999939 -0.007812023 -0.007812023
vn -0.999939 -0.007812023 -0.007812023
vn -0.007873528 0.999938 -0.007873528
vn -0.007873528 0.999938 -0.007873528
vn -0.007873528 0.999938 -0.007873528
vn -0.007873528 0.999938 -0.007873528
vn -0.007873528 0.999938 -0.007873528
vn -0.007873528 0.999938 -0.007873528
f 1/1/1 2/2/2 3/3/3
f 3/3/3 4/4/4 1/1/1
f 5/5/5 6/6/6 7/7/7
f 5/5/5 7/7/7 8/8/8
f 8/8/8 9/9/9 5/5/5
f 10/10/10 11/11/11 12/12/12
f 12/12/12 13/13/13 10/10/10
f 13/13/13 12/12/12 6/6/6
f 14/14/14 15/15/15 16/16/16
f 16/16/16 17/17/17 14/14/14
f 18/18/18 19/19/19 20/20/20
f 20/20/20 21/21/21 18/18/18
f 22/22/22 23/23/23 24/24/24
f 24/24/24 25/25/25 22/22/22
f 26/26/26 27/27/27 28/28/28
f 28/28/28 29/29/29 26/26/26
f 30/30/30 31/31/31 32/32/32
f 32/32/32 33/33/33 30/30/30
f 34/34/34 35/35/35 36/36/36
f 36/36/36 37/37/37 34/34/34
f 38/38/38 39/39/39 40/40/40
f 40/40/40 41/41/41 38/38/38
f 42/42/42 43/43/43 44/44/44
f 44/44/44 45/45/45 42/42/42
f 46/46/46 47/47/47 48/48/48
f 48/48/48 49/49/49 46/46/46
f 50/50/50 51/51/51 52/52/52
f 52/52/52 53/53/53 50/50/50
f 54/54/54 55/55/55 56/56/56
f 56/56/56 57/57/57 54/54/54
f 58/58/58 59/59/59 60/60/60
f 60/60/60 61/61/61 58/58/58
f 61/61/61 60/60/60 62/62/62
f 62/62/62 63/63/63 61/61/61
f 64/64/64 65/65/65 66/66/66
f 66/66/66 67/67/67 64/64/64
f 67/67/67 68/68/68 64/64/64
f 69/69/69 64/64/64 68/68/68
f 70/70/70 64/64/64 69/69/69
f 69/69/69 71/71/71 70/70/70
f 72/72/72 73/73/73 74/74/74
f 74/74/74 75/75/75 72/72/72
f 76/76/76 72/72/72 75/75/75
f 75/75/75 77/77/77 76/76/76
