# Converted from D:\Dwonloads\umodel_lostark_v7\extracted\KamenMap_Unity_20260612_172048\RawUModel\GltfMeshes_PngTextures\BG_RAD_KAMEN_D\StaticMesh3\bg_rad_kamen_wall02_sm_hhk.gltf
mtllib bg_rad_kamen_wall02_sm_hhk.mtl
o bg_rad_kamen_wall02_sm_hhk_0
usemtl BG_RAD_KAMEN_D__bg_rad_kamen_housedome01a_mi_hhk
v -1.92 1.374709e-07 -0.72
v 1.92 -1.421496e-07 -0.72
v 1.92 -1.421496e-07 0.72
v -1.92 1.374709e-07 0.72
v -1.92 0.1600001 -0.72
v -1.92 0.1600001 0.72
v 1.92 0.1599998 0.72
v 1.92 0.1599998 -0.72
v 1.92 -1.421496e-07 0.72
v 1.92 -1.421496e-07 -0.72
v 1.92 0.1599998 -0.72
v 1.92 0.1599998 0.72
v 1.92 -1.421496e-07 -0.72
v -1.92 1.374709e-07 -0.72
v -1.92 0.1600001 -0.72
v 1.92 0.1599998 -0.72
v -1.92 1.374709e-07 -0.72
v -1.92 1.374709e-07 0.72
v -1.92 0.1600001 0.72
v -1.92 0.1600001 -0.72
v -1.92 1.374709e-07 0.72
v 1.92 -1.421496e-07 0.72
v 1.92 0.1599998 0.72
v -1.92 0.1600001 0.72
vt 0.9902344 0.9567871
vt 0.9902344 0.0390625
vt 0.6269531 0.0390625
vt 0.6269531 0.9567871
vt 0.9902344 0.9567871
vt 0.6269531 0.9567871
vt 0.6269531 0.0390625
vt 0.9902344 0.0390625
vt 0.6269531 0.07714844
vt 0.9902344 0.07714844
vt 0.9902344 0.0390625
vt 0.6269531 0.0390625
vt 0.9521484 0.0390625
vt 0.9521484 0.9567871
vt 0.9902344 0.9567871
vt 0.9902344 0.0390625
vt 0.9902344 0.9187012
vt 0.6269531 0.9187012
vt 0.6269531 0.9567871
vt 0.9902344 0.9567871
vt 0.6650391 0.9567871
vt 0.6650391 0.0390625
vt 0.6269531 0.0390625
vt 0.6269531 0.9567871
vn -0.007812023 -0.999939 -0.007812023
vn -0.007812023 -0.999939 -0.007812023
vn -0.007812023 -0.999939 -0.007812023
vn -0.007812023 -0.999939 -0.007812023
vn -0.007873528 0.999938 -0.007873528
vn -0.007873528 0.999938 -0.007873528
vn -0.007873528 0.999938 -0.007873528
vn -0.007873528 0.999938 -0.007873528
vn 0.999938 -0.007873528 -0.007873528
vn 0.999938 -0.007873528 -0.007873528
vn 0.999938 -0.007873528 -0.007873528
vn 0.999938 -0.007873528 -0.007873528
vn -0.007812023 -0.007812023 -0.999939
vn -0.007812023 -0.007812023 -0.999939
vn -0.007812023 -0.007812023 -0.999939
vn -0.007812023 -0.007812023 -0.999939
vn -0.999939 -0.007812023 -0.007812023
vn -0.999939 -0.007812023 -0.007812023
vn -0.999939 -0.007812023 -0.007812023
vn -0.999939 -0.007812023 -0.007812023
vn -0.007873528 -0.007873528 0.999938
vn -0.007873528 -0.007873528 0.999938
vn -0.007873528 -0.007873528 0.999938
vn -0.007873528 -0.007873528 0.999938
f 1/1/1 2/2/2 3/3/3
f 3/3/3 4/4/4 1/1/1
f 5/5/5 6/6/6 7/7/7
f 7/7/7 8/8/8 5/5/5
f 9/9/9 10/10/10 11/11/11
f 11/11/11 12/12/12 9/9/9
f 13/13/13 14/14/14 15/15/15
f 15/15/15 16/16/16 13/13/13
f 17/17/17 18/18/18 19/19/19
f 19/19/19 20/20/20 17/17/17
f 21/21/21 22/22/22 23/23/23
f 23/23/23 24/24/24 21/21/21
