# Converted from D:\Dwonloads\umodel_lostark_v7\extracted\KamenMap_Unity_20260612_172048\RawUModel\GltfMeshes_PngTextures\EFMASTER_MATERIAL_SKYMATTE\StaticMesh3\matte_mesh_01.gltf
mtllib matte_mesh_01.mtl
o matte_mesh_01_0
usemtl EFMASTER_MATERIAL_SKYMATTE__matte_base_mi
v 0.1951983 -0.2702301 -0.3937008
v 0.2489773 -0.2702302 -0.7862686
v -9.593108e-09 -0.2194647 -0.7874016
v -9.593108e-09 -0.2194647 -0.3937008
v 0.1951983 -0.2702301 7.152557e-09
v -0.2836873 -0.1326327 -0.7874016
v -0.2836873 -0.1326327 -0.3937008
v -0.3694066 -0.03937633 -0.3937008
v -0.3694066 -0.03937633 -0.7874016
v -0.3912215 0.05450419 -0.7874016
v 0.3065068 -0.2702302 0.3802983
v -9.593108e-09 -0.2194647 0.7874016
v 0.4723274 -0.2702301 0.7668978
v -9.593108e-09 -0.2194647 0.3937008
v -9.593108e-09 -0.2194647 0
v -0.2836873 -0.1326327 -4.768371e-09
v -0.3694066 -0.03937633 -1.440841e-08
v -0.3912214 0.05450419 -0.3937007
v -0.3912215 0.05450419 -1.614196e-08
v -0.2836873 -0.1326327 0.3937008
v -0.3694066 -0.03937633 0.3937008
v -0.3912215 0.05450419 0.3937008
v -0.3912215 0.1561296 -1.614196e-08
v -0.3912214 0.1561296 -0.3937008
v -0.3912215 0.1561296 0.3937008
v -0.3912215 0.1561296 -0.7874016
v -0.3912215 0.2979227 -0.7874016
v -0.3912214 0.2979227 -0.3937008
v -0.3912215 0.2979227 -1.614196e-08
v -0.3912215 0.2979227 0.3937007
v -0.3912215 0.2979227 0.7874016
v -0.3912215 0.1561296 0.7874016
v -0.3912215 0.05450419 0.7874016
v -0.3694066 -0.03937633 0.7874016
v -0.2836873 -0.1326327 0.7874016
vt 0.75 0
vt 1 0
vt 1 0.25
vt 0.75 0.25
vt 0.5 0
vt 1 0.453125
vt 0.75 0.453125
vt 0.75 0.5905762
vt 1 0.5905762
vt 1 0.6560059
vt 0.25 0
vt 3.051758e-05 0.25
vt 3.051758e-05 0
vt 0.25 0.25
vt 0.5 0.25
vt 0.5 0.453125
vt 0.5 0.5905762
vt 0.75 0.6560059
vt 0.5 0.6560059
vt 0.25 0.453125
vt 0.25 0.5905762
vt 0.25 0.6560059
vt 0.5 0.8280029
vt 0.75 0.8280029
vt 0.25 0.8280029
vt 1 0.8280029
vt 1 0.9999695
vt 0.75 0.9999695
vt 0.5 0.9999695
vt 0.25 0.9999695
vt 3.051758e-05 0.9999695
vt 3.051758e-05 0.8280029
vt 3.051758e-05 0.6560059
vt 3.051758e-05 0.5905762
vt 3.051758e-05 0.453125
vn 0.2294804 0.9733133 0
vn 0.1899981 0.9816568 0.01583317
vn 0.2443901 0.969677 0
vn 0.2684498 0.9632613 -0.007895584
vn 0.221901 0.9747793 -0.0237751
vn 0.5306941 0.8475264 -0.007920808
vn 0.578219 0.8158432 -0.007920808
vn 0.8847192 0.4660574 -0.007899279
vn 0.8847192 0.4660574 -0.007899279
vn 0.9938528 0.1104281 -0.007887721
vn 0.1346537 0.990101 -0.03960404
vn 0.2051893 0.978595 -0.01578379
vn 0.09466442 0.9939765 -0.05522092
vn 0.2294516 0.9731914 -0.01582425
vn 0.2684498 0.9632613 -0.007895584
vn 0.5306941 0.8475264 -0.007920808
vn 0.9037094 0.4280729 -0.007927276
vn 0.9938528 0.1104281 -0.007887721
vn 0.9938528 0.1104281 -0.007887721
vn 0.4503572 0.8928135 -0.007901004
vn 0.8416676 0.5399376 -0.00794026
vn 0.9938528 0.1104281 -0.007887721
vn 0.999938 -0.007873528 -0.007873528
vn 0.999938 -0.007873528 -0.007873528
vn 0.999938 -0.007873528 -0.007873528
vn 0.999938 -0.007873528 -0.007873528
vn 0.999938 -0.007873528 -0.007873528
vn 0.999938 -0.007873528 -0.007873528
vn 0.999938 -0.007873528 -0.007873528
vn 0.999938 -0.007873528 -0.007873528
vn 0.999938 -0.007873528 -0.007873528
vn 0.999938 -0.007873528 -0.007873528
vn 0.9938528 0.1104281 -0.007887721
vn 0.9251397 0.3795445 -0.007907177
vn 0.6050641 0.796137 -0.00796137
f 1/1/1 2/2/2 3/3/3
f 4/4/4 5/5/5 1/1/1
f 1/1/1 3/3/3 4/4/4
f 3/3/3 6/6/6 4/4/4
f 4/4/4 6/6/6 7/7/7
f 6/6/6 8/8/8 7/7/7
f 8/8/8 6/6/6 9/9/9
f 10/10/10 8/8/8 9/9/9
f 11/11/11 12/12/12 13/13/13
f 12/12/12 11/11/11 14/14/14
f 5/5/5 14/14/14 11/11/11
f 14/14/14 5/5/5 15/15/15
f 5/5/5 4/4/4 15/15/15
f 4/4/4 16/16/16 15/15/15
f 16/16/16 4/4/4 7/7/7
f 7/7/7 17/17/17 16/16/16
f 17/17/17 7/7/7 8/8/8
f 18/18/18 17/17/17 8/8/8
f 18/18/18 19/19/19 17/17/17
f 20/20/20 15/15/15 16/16/16
f 16/16/16 21/21/21 20/20/20
f 21/21/21 16/16/16 17/17/17
f 17/17/17 22/22/22 21/21/21
f 22/22/22 17/17/17 19/19/19
f 23/23/23 22/22/22 19/19/19
f 19/19/19 18/18/18 23/23/23
f 24/24/24 23/23/23 18/18/18
f 23/23/23 25/25/25 22/22/22
f 8/8/8 10/10/10 18/18/18
f 10/10/10 24/24/24 18/18/18
f 24/24/24 10/10/10 26/26/26
f 27/27/27 24/24/24 26/26/26
f 27/27/27 28/28/28 24/24/24
f 28/28/28 23/23/23 24/24/24
f 23/23/23 28/28/28 29/29/29
f 30/30/30 23/23/23 29/29/29
f 23/23/23 30/30/30 25/25/25
f 30/30/30 31/31/31 25/25/25
f 32/32/32 25/25/25 31/31/31
f 25/25/25 32/32/32 22/22/22
f 33/33/33 22/22/22 32/32/32
f 22/22/22 33/33/33 34/34/34
f 22/22/22 34/34/34 21/21/21
f 21/21/21 34/34/34 35/35/35
f 21/21/21 35/35/35 20/20/20
f 12/12/12 20/20/20 35/35/35
f 14/14/14 20/20/20 12/12/12
f 15/15/15 20/20/20 14/14/14
