# Converted from D:\Dwonloads\umodel_lostark_v7\extracted\KamenMap_Unity_20260612_172048\RawUModel\GltfMeshes_PngTextures\EFMASTER_MATERIAL_SKYMATTE\StaticMesh3\plane_static.gltf
mtllib plane_static.mtl
o plane_static_0
usemtl EFMASTER_MATERIAL_SKYMATTE__material
v 0 0 -1.3
v 0 0 -0.65
v -2.84124e-08 -0.65 -1.3
v 5.682481e-08 1.3 0
v 5.682481e-08 1.3 0.65
v 2.84124e-08 0.65 0
v 2.84124e-08 0.65 -0.65
v 2.84124e-08 0.65 -1.3
v 5.682481e-08 1.3 -0.65
v 5.682481e-08 1.3 -1.3
v 2.84124e-08 0.65 1.3
v 0 0 1.3
v 0 0 0.65
v 2.84124e-08 0.65 0.65
v 5.682481e-08 1.3 1.3
v 0 0 0
v -2.84124e-08 -0.65 -0.65
v -5.682481e-08 -1.3 -1.3
v -2.84124e-08 -0.65 1.3
v -2.84124e-08 -0.65 0.65
v -2.84124e-08 -0.65 0
v -5.682481e-08 -1.3 -0.65
v -5.682481e-08 -1.3 0
v -5.682481e-08 -1.3 0.65
v -5.682481e-08 -1.3 1.3
vt 1 0.5
vt 0.75 0.5
vt 1 0.25
vt 0.5 0.9999695
vt 0.25 0.9999695
vt 0.5 0.75
vt 0.75 0.75
vt 1 0.75
vt 0.75 0.9999695
vt 1 0.9999695
vt 3.051758e-05 0.75
vt 3.051758e-05 0.5
vt 0.25 0.5
vt 0.25 0.75
vt 3.051758e-05 0.9999695
vt 0.5 0.5
vt 0.75 0.25
vt 1 0
vt 3.051758e-05 0.25
vt 0.25 0.25
vt 0.5 0.25
vt 0.75 0
vt 0.5 0
vt 0.25 0
vt 3.051758e-05 0
vn 0.999938 -0.007873528 -0.007873528
vn 0.999938 -0.007873528 -0.007873528
vn 0.999938 -0.007873528 -0.007873528
vn 0.999938 -0.007873528 -0.007873528
vn 0.999938 -0.007873528 -0.007873528
vn 0.999938 -0.007873528 -0.007873528
vn 0.999938 -0.007873528 -0.007873528
vn 0.999938 -0.007873528 -0.007873528
vn 0.999938 -0.007873528 -0.007873528
vn 0.999938 -0.007873528 -0.007873528
vn 0.999938 -0.007873528 -0.007873528
vn 0.999938 -0.007873528 -0.007873528
vn 0.999938 -0.007873528 -0.007873528
vn 0.999938 -0.007873528 -0.007873528
vn 0.999938 -0.007873528 -0.007873528
vn 0.999938 -0.007873528 -0.007873528
vn 0.999938 -0.007873528 -0.007873528
vn 0.999938 -0.007873528 -0.007873528
vn 0.999938 -0.007873528 -0.007873528
vn 0.999938 -0.007873528 -0.007873528
vn 0.999938 -0.007873528 -0.007873528
vn 0.999938 -0.007873528 -0.007873528
vn 0.999938 -0.007873528 -0.007873528
vn 0.999938 -0.007873528 -0.007873528
vn 0.999938 -0.007873528 -0.007873528
f 1/1/1 2/2/2 3/3/3
f 4/4/4 5/5/5 6/6/6
f 4/4/4 6/6/6 7/7/7
f 7/7/7 6/6/6 2/2/2
f 7/7/7 2/2/2 1/1/1
f 8/8/8 7/7/7 1/1/1
f 9/9/9 7/7/7 8/8/8
f 10/10/10 9/9/9 8/8/8
f 9/9/9 4/4/4 7/7/7
f 11/11/11 12/12/12 13/13/13
f 14/14/14 11/11/11 13/13/13
f 15/15/15 11/11/11 14/14/14
f 5/5/5 15/15/15 14/14/14
f 5/5/5 14/14/14 6/6/6
f 6/6/6 14/14/14 16/16/16
f 6/6/6 16/16/16 2/2/2
f 2/2/2 16/16/16 17/17/17
f 2/2/2 17/17/17 3/3/3
f 3/3/3 17/17/17 18/18/18
f 14/14/14 13/13/13 16/16/16
f 12/12/12 19/19/19 20/20/20
f 13/13/13 12/12/12 20/20/20
f 13/13/13 20/20/20 21/21/21
f 16/16/16 13/13/13 21/21/21
f 16/16/16 21/21/21 17/17/17
f 17/17/17 22/22/22 18/18/18
f 17/17/17 21/21/21 22/22/22
f 21/21/21 23/23/23 22/22/22
f 21/21/21 20/20/20 23/23/23
f 20/20/20 24/24/24 23/23/23
f 20/20/20 19/19/19 24/24/24
f 19/19/19 25/25/25 24/24/24
