# Converted from D:\Dwonloads\umodel_lostark_v7\extracted\KamenMap_Unity_20260612_172048\RawUModel\GltfMeshes_PngTextures\BG_RAD_KAMEN_STONE_A\StaticMesh3\bg_rad_kamen_rock02c_sm.gltf
mtllib bg_rad_kamen_rock02c_sm.mtl
o bg_rad_kamen_rock02c_sm_0
usemtl BG_RAD_KAMEN_STONE_A__bg_rad_kamen_rock02_mi_ksr
v 0.1036199 -0.2107718 0.2036511
v 0.2028827 -0.1339139 0.1719281
v 0.1556494 -0.1723087 0.2216113
v -0.1213761 -0.1680542 0.1168481
v -0.1082638 -0.1567535 -0.09091187
v -0.04648912 -0.1146143 0.09346252
v -0.03509745 -0.1015457 0.1424884
v -0.008690319 -0.1147687 0.2781598
v 0.01138943 -0.1714709 0.2236822
v 0.08958259 -0.2138541 0.08042847
v 0.1240837 -0.1729425 0.0656604
v 0.1979985 -0.1172751 0.04577637
v 0.1934143 -0.119957 -0.03088013
v 0.08894414 -0.1988751 -0.1488446
v 0.1381084 -0.1718057 -0.1640918
v 0.08036996 -0.1989456 -0.08115906
v -0.005916786 -0.1531406 -0.01966492
v -0.03531271 -0.1123016 -0.1348242
v -0.04862272 -0.1140378 -0.04834289
v -0.1675799 -0.120867 -0.1156012
v -0.002059193 -0.1294812 -0.1914185
v -0.01799452 -0.01846985 -0.163172
v 0.02093803 -0.007359924 -0.2208435
v 0.1238165 0.008750916 -0.2836462
v 0.009223538 0.02154632 -0.2714062
v -0.05582691 0.007499389 -0.1880487
v -0.04962017 -0.07825042 -0.167113
v -0.1431001 -0.04914612 -0.1360034
v -0.1723009 0.0124176 -0.1293176
v -0.1549356 0.03964264 -0.1734265
v 0.2148573 -0.1109906 -0.1507519
v 0.148314 -0.1364792 -0.2178308
v 0.08701295 -0.1039124 -0.2136072
v 0.09246834 -0.02508789 -0.203045
v 0.1412458 -0.06182495 -0.2423743
v 0.1905857 -0.008492737 -0.1996966
v 0.2096511 -0.07367919 -0.1777979
v 0.1934143 -0.119957 -0.03088013
v 0.07289989 0.01230041 0.2011548
v 0.1111686 -0.1034036 0.2506866
v 0.1756983 -0.01570679 0.2118323
v 0.1818202 0.002607727 0.1639819
v 0.2028827 -0.1339139 0.1719281
v 0.1979985 -0.1172751 0.04577637
v 0.1913563 0.01915222 0.05241577
v 0.2001293 0.1152838 -0.08667541
v 0.1942533 0.1189081 -0.184834
v 0.07240236 0.1818097 -0.267207
v -0.00335783 0.1519424 -0.1633215
v -0.003188553 0.1640027 -0.01751648
v 0.1263749 0.2076031 -0.205152
v 0.1167549 0.2136194 -0.01582581
v 0.187112 0.1184088 0.059021
v 0.1809645 0.07768768 0.1184839
v 0.1342887 0.06487701 0.1674255
v 0.1352588 0.1011963 -0.2631689
v 0.1474004 0.1203296 -0.2161707
v 0.1644734 0.05327637 -0.2030554
v 0.03464415 0.0694107 -0.2968079
v 0.02380367 0.1654193 -0.2139972
v -0.05582691 0.007499389 -0.1880487
v 0.009223538 0.02154632 -0.2714062
v -0.05582691 0.007499389 -0.1880487
v -0.1549356 0.03964264 -0.1734265
v -0.130686 0.08474915 -0.1955365
v -0.00335783 0.1519424 -0.1633215
v -0.07525336 0.1495657 -0.1570538
v -0.09099802 0.2011078 -0.06004639
v -0.1666195 0.09551849 -0.119679
v -0.1723009 0.0124176 -0.1293176
v -0.2036699 -0.03096893 -0.03686951
v -0.2010822 -0.124407 -0.001744995
v -0.1990574 -0.1273434 0.1156348
v -0.1988304 -0.07262207 0.1328833
v -0.2042582 -0.02754089 0.0469696
v -0.1168804 0.1267807 -0.1142718
v -0.1651995 0.1394839 -0.09084594
v -0.1941815 0.1356845 -0.02803406
v -0.2130512 0.1387418 0.1214276
v -0.2148573 0.1036069 0.1850867
v -0.2014144 0.01194916 0.175011
v -0.1929771 -0.04528259 0.1703442
v -0.1287028 0.1321319 0.1927002
v -0.1330128 0.009687195 0.1973383
v -0.08938293 0.05798737 0.1580499
v -0.2148573 0.1036069 0.1850867
v -0.101529 0.1862457 0.1360767
v -0.117433 0.2138541 0.05595703
v -0.2014144 0.01194916 0.175011
v -0.1929771 -0.04528259 0.1703442
v -0.09337425 -0.07968353 0.1498193
v -0.01220589 0.06782012 0.1477881
v -0.04675118 0.1832974 0.128219
v -0.003188553 0.1640027 -0.01751648
v -0.02135702 0.1525864 0.0959497
v -0.03509745 -0.1015457 0.1424884
v -0.1213761 -0.1680542 0.1168481
v -0.1990574 -0.1273434 0.1156348
v -0.1988304 -0.07262207 0.1328833
v 0.04875681 0.09055877 0.1287384
v -0.01220589 0.06782012 0.1477881
v 0.04958113 0.05582367 0.1722711
v 0.1172332 0.06788452 0.1211658
v -0.009081573 0.01177887 0.1773962
v -0.03509745 -0.1015457 0.1424884
v -0.008690319 -0.1147687 0.2781598
v 0.02281155 -0.04059265 0.2685217
v 0.03720621 -0.1252155 0.2968079
v 0.08570209 -0.03198852 0.2525836
v 0.03457079 -0.01646759 0.2202209
v 0.01138943 -0.1714709 0.2236822
v 0.1036199 -0.2107718 0.2036511
v 0.1556494 -0.1723087 0.2216113
v 0.1597215 -0.1110309 0.2430573
v -0.02135702 0.1525864 0.0959497
v -0.01220589 0.06782012 0.1477881
v 0.04875681 0.09055877 0.1287384
v 0.05175485 0.1920084 0.09783264
v 0.1172332 0.06788452 0.1211658
v 0.1319564 0.1794943 0.096521
v 0.1315728 0.1825833 0.04440003
vt 0.5209961 0.215332
vt 0.5048828 0.2241211
vt 0.5112305 0.215332
vt 0.5629883 0.2192383
vt 0.5634766 0.2475586
vt 0.5493164 0.2241211
vt 0.5478516 0.2172852
vt 0.5415039 0.199707
vt 0.534668 0.2089844
vt 0.5268555 0.230957
vt 0.5200195 0.2353516
vt 0.5087891 0.2416992
vt 0.5126953 0.2524414
vt 0.5336914 0.2592773
vt 0.5288086 0.2646484
vt 0.5322266 0.2519531
vt 0.5449219 0.2412109
vt 0.5546875 0.2573242
vt 0.5532227 0.2441406
vt 0.5727539 0.2504883
vt 0.5478516 0.2641602
vt 0.5595703 0.2714844
vt 0.5546875 0.2802734
vt 0.5483398 0.2958984
vt 0.5600586 0.2866211
vt 0.5649414 0.2739258
vt 0.5595703 0.2626953
vt 0.5727539 0.2602539
vt 0.5805664 0.2666016
vt 0.5791016 0.2734375
vt 0.5170898 0.2719727
vt 0.5307617 0.2719727
vt 0.5395508 0.2729492
vt 0.5429688 0.2836914
vt 0.5341797 0.2797852
vt 0.5283203 0.2875977
vt 0.5214844 0.2788086
vt 0.4987793 0.2792969
vt 0.4660645 0.315918
vt 0.4570312 0.2998047
vt 0.472168 0.3032227
vt 0.4782715 0.3046875
vt 0.4697266 0.2866211
vt 0.487793 0.2832031
vt 0.4929199 0.3022461
vt 0.5146484 0.3066406
vt 0.5268555 0.3041992
vt 0.5400391 0.3164062
vt 0.5415039 0.3325195
vt 0.5180664 0.3442383
vt 0.5327148 0.3168945
vt 0.512207 0.3261719
vt 0.4970703 0.3149414
vt 0.4868164 0.3144531
vt 0.4777832 0.3154297
vt 0.5400391 0.3037109
vt 0.5341797 0.3051758
vt 0.5332031 0.2954102
vt 0.5532227 0.3105469
vt 0.5415039 0.3242188
vt 0.5654297 0.3271484
vt 0.5600586 0.3110352
vt 0.5961914 0.2817383
vt 0.5932617 0.265625
vt 0.6000977 0.2685547
vt 0.6186523 0.2768555
vt 0.6118164 0.269043
vt 0.6206055 0.2573242
vt 0.6010742 0.2578125
vt 0.5898438 0.2573242
vt 0.5869141 0.2421875
vt 0.5761719 0.2348633
vt 0.5761719 0.2192383
vt 0.5854492 0.2177734
vt 0.590332 0.230957
vt 0.6079102 0.2617188
vt 0.6079102 0.2548828
vt 0.6079102 0.2460938
vt 0.6157227 0.2265625
vt 0.6118164 0.2163086
vt 0.5986328 0.2148438
vt 0.590332 0.2133789
vt 0.6318359 0.2255859
vt 0.6411133 0.2128906
vt 0.6435547 0.2231445
vt 0.6235352 0.2163086
vt 0.6308594 0.2353516
vt 0.625 0.2431641
vt 0.6337891 0.2070312
vt 0.6411133 0.2016602
vt 0.6547852 0.2080078
vt 0.6508789 0.2314453
vt 0.637207 0.2392578
vt 0.6342773 0.2607422
vt 0.6416016 0.2441406
vt 0.6630859 0.2114258
vt 0.6616211 0.1962891
vt 0.6508789 0.1918945
vt 0.6450195 0.1967773
vt 0.4743652 0.3286133
vt 0.4655762 0.331543
vt 0.4689941 0.3232422
vt 0.4807129 0.3212891
vt 0.4589844 0.3261719
vt 0.4423828 0.3291016
vt 0.442627 0.3100586
vt 0.453125 0.3129883
vt 0.4462891 0.3041992
vt 0.4602051 0.309082
vt 0.4589844 0.3168945
vt 0.4367676 0.2983398
vt 0.4460449 0.2856445
vt 0.4572754 0.2871094
vt 0.4616699 0.2949219
vt 0.4997559 0.347168
vt 0.4858398 0.3491211
vt 0.4873047 0.3398438
vt 0.5004883 0.3369141
vt 0.4829102 0.3276367
vt 0.4980469 0.3266602
vt 0.5039062 0.324707
vn 0.3039279 -0.9273697 0.2182046
vn 0.9038881 -0.4008547 0.149338
vn 0.5218084 -0.4822775 0.7036508
vn 0.02342464 -0.9135608 0.406027
vn 0.1474198 -0.9698669 -0.1939734
vn -0.3570615 -0.9314648 0.06985985
vn -0.6176967 -0.2345684 0.7506187
vn -0.8592439 -0.06249047 0.507735
vn -0.5300543 -0.8028764 0.2728221
vn -0.1239008 -0.9912062 -0.0464628
vn 0.6347136 -0.7679251 -0.08619568
vn 0.9228346 -0.3785988 -0.07098727
vn 0.9529923 -0.2992868 0.04725581
vn -0.2172567 -0.8923044 -0.3957176
vn 0.5178103 -0.8394804 -0.1647578
vn 0.3209104 -0.9470772 -0.007827084
vn -0.5803848 -0.8125387 -0.05416925
vn -0.3092516 -0.7653978 -0.5643843
vn -0.06236123 -0.9977796 -0.02338546
vn -0.59467 -0.4170413 -0.6873458
vn -0.503876 -0.3100775 -0.8062015
vn -0.2644813 -0.396722 -0.8790115
vn -0.310003 -0.720757 -0.620006
vn 0.3269993 -0.6072844 -0.7240699
vn -0.4189573 -0.5896435 -0.6905037
vn -0.4509694 -0.2799121 -0.8475115
vn 0.1007691 -0.4418339 -0.8914193
vn -0.3792756 -0.3018724 -0.874656
vn -0.7604901 -0.1629622 -0.6285684
vn -0.7055748 -0.2170999 -0.6745605
vn 0.8077003 -0.5724478 -0.1411515
vn 0.3269497 -0.5682698 -0.7550982
vn -0.3179441 -0.2481515 -0.9150587
vn -0.02338262 -0.187061 -0.98207
vn 0.1093583 0.06249047 -0.9920361
vn 0.3975528 0.1559031 -0.9042378
vn 0.919097 -0.03142212 -0.3927765
vn 0.9529923 -0.2992868 0.04725581
vn 0.07125151 0.6729309 0.7362657
vn 0.4357675 0.1505379 0.887381
vn 0.5493345 0.429914 0.7165233
vn 0.8963174 0.3014165 0.3252125
vn 0.9038881 -0.4008547 0.149338
vn 0.9228346 -0.3785988 -0.07098727
vn 0.9968342 0.007911382 0.07911382
vn 0.9558127 0.2922733 0.03159711
vn 0.7614931 0.1884107 -0.6201851
vn -0.196826 0.8502883 -0.4881285
vn -0.1879767 0.8537277 -0.4856066
vn -0.007934009 0.9996852 -0.02380203
vn 0.5351843 0.7555543 -0.3777771
vn 0.3642429 0.9264439 0.0950199
vn 0.887381 0.4357675 0.1505379
vn 0.706327 0.4761755 0.523793
vn 0.1589857 0.7551822 0.6359429
vn 0.6988403 0.2120078 -0.6831361
vn 0.7716535 0.1653543 -0.6141732
vn 0.6955885 -0.1016028 -0.7112197
vn -0.4045621 0.1478208 -0.9024847
vn -0.7284546 0.5874634 -0.352478
vn -0.4509694 -0.2799121 -0.8475115
vn -0.4189573 -0.5896435 -0.6905037
vn -0.4509694 -0.2799121 -0.8475115
vn -0.7055748 -0.2170999 -0.6745605
vn -0.3901847 0.3121477 -0.86621
vn -0.1879767 0.8537277 -0.4856066
vn -0.4536098 0.6569521 -0.6022061
vn -0.1653133 0.9446477 -0.2833943
vn -0.8215671 0.3912224 -0.4146958
vn -0.7604901 -0.1629622 -0.6285684
vn -0.9792483 -0.01554362 -0.2020671
vn -0.8716811 -0.4825378 -0.08561155
vn -0.6086881 -0.4994364 0.6164918
vn -0.8806116 -0.2805488 0.3818581
vn -0.9975069 -0.0701372 0.007793023
vn -0.5669486 0.3960874 -0.722277
vn -0.6330637 0.4454893 -0.6330637
vn -0.837652 0.4853684 -0.2505127
vn -0.8825432 0.4607969 0.0937214
vn -0.6992069 0.274969 0.6599256
vn -0.8428246 -0.1560786 0.5150594
vn -0.4152554 -0.4622655 0.7835008
vn 0.3322781 0.3006325 0.8939862
vn 0.1187265 -0.1503869 0.9814723
vn 0.5152567 0.03963513 0.8561189
vn -0.6992069 0.274969 0.6599256
vn 0 0.6828839 0.7305269
vn -0.1500442 0.9871327 0.05527943
vn -0.8428246 -0.1560786 0.5150594
vn -0.4152554 -0.4622655 0.7835008
vn 0.05497514 -0.3298508 0.942431
vn 0.01584659 0.3327783 0.9428719
vn 0.564667 0.699869 0.4374181
vn -0.007934009 0.9996852 -0.02380203
vn 0.301246 0.6976222 0.650057
vn -0.6176967 -0.2345684 0.7506187
vn 0.02342464 -0.9135608 0.406027
vn -0.6086881 -0.4994364 0.6164918
vn -0.8806116 -0.2805488 0.3818581
vn 0.05562743 0.5483275 0.8344115
vn 0.01584659 0.3327783 0.9428719
vn -0.07919565 0.7127609 0.6969218
vn 0.0557986 0.6775544 0.733353
vn -0.5591938 0.519814 0.6458295
vn -0.6176967 -0.2345684 0.7506187
vn -0.8592439 -0.06249047 0.507735
vn -0.2379978 0.6584606 0.7139935
vn 0.07887721 -0.2602948 0.9623019
vn 0.4934173 0.4695423 0.7321676
vn -0.2063167 0.8411374 0.4999213
vn -0.5300543 -0.8028764 0.2728221
vn 0.3039279 -0.9273697 0.2182046
vn 0.5218084 -0.4822775 0.7036508
vn 0.5470851 -0.08721648 0.832521
vn 0.301246 0.6976222 0.650057
vn 0.01584659 0.3327783 0.9428719
vn 0.05562743 0.5483275 0.8344115
vn -0.06335652 0.8077957 0.5860479
vn 0.0557986 0.6775544 0.733353
vn 0.4457802 0.6447892 0.6209081
vn 0.5161169 0.8416676 0.1588052
f 1/1/1 2/2/2 3/3/3
f 4/4/4 5/5/5 6/6/6
f 4/4/4 6/6/6 7/7/7
f 6/6/6 8/8/8 7/7/7
f 8/8/8 6/6/6 9/9/9
f 10/10/10 9/9/9 6/6/6
f 1/1/1 9/9/9 10/10/10
f 10/10/10 11/11/11 1/1/1
f 1/1/1 11/11/11 2/2/2
f 11/11/11 12/12/12 2/2/2
f 11/11/11 13/13/13 12/12/12
f 14/14/14 15/15/15 16/16/16
f 16/16/16 17/17/17 14/14/14
f 14/14/14 17/17/17 18/18/18
f 17/17/17 19/19/19 18/18/18
f 5/5/5 18/18/18 19/19/19
f 6/6/6 5/5/5 19/19/19
f 17/17/17 6/6/6 19/19/19
f 17/17/17 10/10/10 6/6/6
f 10/10/10 17/17/17 16/16/16
f 10/10/10 16/16/16 11/11/11
f 18/18/18 5/5/5 20/20/20
f 21/21/21 22/22/22 23/23/23
f 21/21/21 18/18/18 22/22/22
f 14/14/14 18/18/18 21/21/21
f 24/24/24 23/23/23 25/25/25
f 23/23/23 26/26/26 25/25/25
f 23/23/23 22/22/22 26/26/26
f 27/27/27 26/26/26 22/22/22
f 27/27/27 22/22/22 18/18/18
f 18/18/18 28/28/28 27/27/27
f 20/20/20 28/28/28 18/18/18
f 28/28/28 20/20/20 29/29/29
f 26/26/26 28/28/28 29/29/29
f 26/26/26 29/29/29 30/30/30
f 27/27/27 28/28/28 26/26/26
f 16/16/16 13/13/13 11/11/11
f 16/16/16 31/31/31 13/13/13
f 16/16/16 15/15/15 31/31/31
f 15/15/15 32/32/32 31/31/31
f 15/15/15 14/14/14 32/32/32
f 33/33/33 32/32/32 14/14/14
f 21/21/21 33/33/33 14/14/14
f 33/33/33 21/21/21 34/34/34
f 21/21/21 23/23/23 34/34/34
f 34/34/34 23/23/23 24/24/24
f 35/35/35 32/32/32 33/33/33
f 33/33/33 34/34/34 35/35/35
f 35/35/35 34/34/34 36/36/36
f 35/35/35 36/36/36 37/37/37
f 35/35/35 37/37/37 32/32/32
f 37/37/37 31/31/31 32/32/32
f 31/31/31 37/37/37 38/38/38
f 39/39/39 40/40/40 41/41/41
f 41/41/41 42/42/42 39/39/39
f 43/43/43 42/42/42 41/41/41
f 42/42/42 43/43/43 44/44/44
f 44/44/44 38/38/38 42/42/42
f 42/42/42 38/38/38 45/45/45
f 38/38/38 46/46/46 45/45/45
f 37/37/37 46/46/46 38/38/38
f 37/37/37 47/47/47 46/46/46
f 47/47/47 37/37/37 36/36/36
f 48/48/48 49/49/49 50/50/50
f 51/51/51 48/48/48 50/50/50
f 52/52/52 51/51/51 50/50/50
f 52/52/52 46/46/46 51/51/51
f 53/53/53 46/46/46 52/52/52
f 46/46/46 53/53/53 45/45/45
f 45/45/45 53/53/53 54/54/54
f 45/45/45 54/54/54 42/42/42
f 55/55/55 42/42/42 54/54/54
f 39/39/39 42/42/42 55/55/55
f 51/51/51 56/56/56 48/48/48
f 56/56/56 51/51/51 57/57/57
f 56/56/56 57/57/57 58/58/58
f 58/58/58 57/57/57 47/47/47
f 47/47/47 57/57/57 51/51/51
f 47/47/47 51/51/51 46/46/46
f 36/36/36 58/58/58 47/47/47
f 36/36/36 34/34/34 58/58/58
f 34/34/34 24/24/24 58/58/58
f 24/24/24 56/56/56 58/58/58
f 59/59/59 56/56/56 24/24/24
f 59/59/59 48/48/48 56/56/56
f 48/48/48 59/59/59 60/60/60
f 48/48/48 60/60/60 49/49/49
f 61/61/61 49/49/49 60/60/60
f 59/59/59 61/61/61 60/60/60
f 62/62/62 61/61/61 59/59/59
f 24/24/24 62/62/62 59/59/59
f 63/63/63 64/64/64 65/65/65
f 63/63/63 65/65/65 66/66/66
f 66/66/66 67/67/67 68/68/68
f 66/66/66 65/65/65 67/67/67
f 67/67/67 65/65/65 69/69/69
f 64/64/64 69/69/69 65/65/65
f 70/70/70 69/69/69 64/64/64
f 70/70/70 71/71/71 69/69/69
f 71/71/71 70/70/70 20/20/20
f 72/72/72 71/71/71 20/20/20
f 5/5/5 72/72/72 20/20/20
f 5/5/5 4/4/4 72/72/72
f 4/4/4 73/73/73 72/72/72
f 73/73/73 74/74/74 72/72/72
f 74/74/74 75/75/75 72/72/72
f 72/72/72 75/75/75 71/71/71
f 67/67/67 69/69/69 76/76/76
f 69/69/69 77/77/77 76/76/76
f 77/77/77 69/69/69 78/78/78
f 69/69/69 71/71/71 78/78/78
f 71/71/71 79/79/79 78/78/78
f 75/75/75 79/79/79 71/71/71
f 75/75/75 80/80/80 79/79/79
f 81/81/81 80/80/80 75/75/75
f 74/74/74 81/81/81 75/75/75
f 74/74/74 82/82/82 81/81/81
f 83/83/83 84/84/84 85/85/85
f 84/84/84 83/83/83 86/86/86
f 83/83/83 87/87/87 86/86/86
f 87/87/87 79/79/79 86/86/86
f 87/87/87 88/88/88 79/79/79
f 88/88/88 78/78/78 79/79/79
f 68/68/68 78/78/78 88/88/88
f 78/78/78 68/68/68 77/77/77
f 68/68/68 67/67/67 77/77/77
f 67/67/67 76/76/76 77/77/77
f 85/85/85 87/87/87 83/83/83
f 84/84/84 86/86/86 89/89/89
f 90/90/90 84/84/84 89/89/89
f 84/84/84 90/90/90 91/91/91
f 84/84/84 91/91/91 85/85/85
f 91/91/91 92/92/92 85/85/85
f 85/85/85 92/92/92 87/87/87
f 92/92/92 93/93/93 87/87/87
f 87/87/87 93/93/93 88/88/88
f 93/93/93 94/94/94 88/88/88
f 68/68/68 88/88/88 94/94/94
f 68/68/68 94/94/94 66/66/66
f 95/95/95 94/94/94 93/93/93
f 95/95/95 93/93/93 92/92/92
f 96/96/96 92/92/92 91/91/91
f 97/97/97 96/96/96 91/91/91
f 97/97/97 91/91/91 98/98/98
f 91/91/91 99/99/99 98/98/98
f 91/91/91 90/90/90 99/99/99
f 100/100/100 101/101/101 102/102/102
f 100/100/100 102/102/102 103/103/103
f 55/55/55 103/103/103 102/102/102
f 54/54/54 103/103/103 55/55/55
f 39/39/39 55/55/55 102/102/102
f 102/102/102 104/104/104 39/39/39
f 104/104/104 102/102/102 101/101/101
f 105/105/105 104/104/104 101/101/101
f 106/106/106 104/104/104 105/105/105
f 106/106/106 107/107/107 104/104/104
f 106/106/106 108/108/108 107/107/107
f 107/107/107 108/108/108 109/109/109
f 108/108/108 40/40/40 109/109/109
f 39/39/39 109/109/109 40/40/40
f 109/109/109 39/39/39 107/107/107
f 39/39/39 110/110/110 107/107/107
f 110/110/110 104/104/104 107/107/107
f 110/110/110 39/39/39 104/104/104
f 111/111/111 108/108/108 106/106/106
f 112/112/112 108/108/108 111/111/111
f 108/108/108 112/112/112 113/113/113
f 108/108/108 113/113/113 40/40/40
f 40/40/40 113/113/113 114/114/114
f 114/114/114 41/41/41 40/40/40
f 114/114/114 43/43/43 41/41/41
f 114/114/114 113/113/113 43/43/43
f 115/115/115 116/116/116 117/117/117
f 115/115/115 117/117/117 118/118/118
f 118/118/118 117/117/117 119/119/119
f 119/119/119 120/120/120 118/118/118
f 119/119/119 54/54/54 120/120/120
f 120/120/120 54/54/54 53/53/53
f 120/120/120 53/53/53 121/121/121
f 53/53/53 52/52/52 121/121/121
f 52/52/52 118/118/118 121/121/121
f 50/50/50 118/118/118 52/52/52
f 118/118/118 50/50/50 115/115/115
f 121/121/121 118/118/118 120/120/120
