# Converted from D:\Dwonloads\umodel_lostark_v7\extracted\KamenMap_Unity_20260612_172048\RawUModel\GltfMeshes_PngTextures\BG_RAD_KAMEN_B\StaticMesh3\bg_rad_kamen_floor08h_sm.gltf
mtllib bg_rad_kamen_floor08h_sm.mtl
o bg_rad_kamen_floor08h_sm_0
usemtl BG_RAD_KAMEN_B__bg_rad_kamen_floor08a_mi_ksr
v -3.81239 1.812831e-09 -0.7582085
v -3.223964 1.812831e-09 -0.944427
v -3.618722 1.812831e-09 -1.130642
v -2.565927 1.812831e-09 -1.481435
v -2.104085 1.812831e-09 -1.214791
v -0.01442282 1.812831e-09 -5.801058e-08
v 1.110039e-25 1.812831e-09 -5.801058e-08
v -0.01448327 1.812831e-09 -0.008361935
v -1.16079 1.812831e-09 0
v -1.165662 1.812831e-09 -0.6729919
v -2.136525 1.812831e-09 0
v -3.201637 1.812831e-09 0
v -3.901782 1.812831e-09 0
v -4.86259 1.812831e-09 -0.4975154
v -4.855171 1.812831e-09 0
v -5.935483 1.812831e-09 0
v -2.136525 1.812831e-09 0
v -2.104085 1.812831e-09 1.214791
v -1.165662 1.812831e-09 0.6729919
v -1.16079 1.812831e-09 0
v -0.01448327 1.812831e-09 0.008361818
v -0.01442282 1.812831e-09 -5.801058e-08
v -5.935483 1.812831e-09 0
v -4.86259 1.812831e-09 0.4975154
v -4.855171 1.812831e-09 0
v -3.901782 1.812831e-09 0
v -3.81239 1.812831e-09 0.7582085
v -3.201637 1.812831e-09 0
v -3.223964 1.812831e-09 0.944427
v -2.565927 1.812831e-09 1.481435
v -3.618722 1.812831e-09 1.130642
v 1.110039e-25 1.812831e-09 2.96287
v 0.7940841 1.812831e-09 3.264242
v 1.110039e-25 1.812831e-09 2.429581
v 1.249567 1.81283e-09 3.680724
v 0.8301961 1.812831e-09 3.699219
v 2.967741 1.81283e-09 5.140272
v 2.427586 1.81283e-09 4.204696
v 2.000433 1.81283e-09 4.459877
v 1.950891 1.81283e-09 3.379036
v 1.600818 1.81283e-09 2.772692
v 1.068262 1.812831e-09 1.850278
v 1.110039e-25 1.812831e-09 1.345984
v 0.5803949 1.812831e-09 1.005267
v 1.110039e-25 1.812831e-09 0.01672387
v 0.007211411 1.812831e-09 0.01249037
v -0.007211411 1.812831e-09 0.01249037
v -0.01448327 1.812831e-09 0.008361818
v -0.5803949 1.812831e-09 1.005267
v -1.165662 1.812831e-09 0.6729919
v -1.068262 1.812831e-09 1.850278
v -2.104085 1.812831e-09 1.214791
v -2.42988 1.812831e-09 2.319815
v -2.565927 1.812831e-09 1.481435
v -1.600818 1.812831e-09 2.772691
v -2.967741 1.812831e-09 5.140272
v -2.427585 1.812831e-09 4.204696
v -2.862155 1.812831e-09 3.962362
v -1.950891 1.812831e-09 3.379036
v -2.562823 1.812831e-09 2.922516
v -2.788525 1.812831e-09 2.568578
v 2.104085 1.81283e-09 1.214791
v 2.42988 1.81283e-09 2.319815
v 2.565927 1.81283e-09 1.481435
v 2.562823 1.81283e-09 2.922516
v 2.788526 1.81283e-09 2.568578
v 0.01448338 1.812831e-09 0.008361876
v 0.007211411 1.812831e-09 0.01249037
v 0.5803949 1.812831e-09 1.005267
v 1.165662 1.81283e-09 0.6729919
v 1.068262 1.812831e-09 1.850278
v 1.600818 1.81283e-09 2.772692
v 1.950891 1.81283e-09 3.379036
v 2.862155 1.81283e-09 3.962362
v 2.427586 1.81283e-09 4.204696
v 2.967741 1.81283e-09 5.140272
v 0.01442282 1.812831e-09 -5.801058e-08
v 0.01448338 1.812831e-09 0.008361876
v 1.16079 1.81283e-09 -5.801058e-08
v 1.165662 1.81283e-09 0.6729919
v 2.136525 1.81283e-09 5.801058e-08
v 2.104085 1.81283e-09 1.214791
v 3.223964 1.81283e-09 0.9444272
v 2.565927 1.81283e-09 1.481435
v 3.201637 1.81283e-09 1.160212e-07
v 5.935483 1.81283e-09 3.480635e-07
v 4.855171 1.81283e-09 2.900529e-07
v 4.86259 1.81283e-09 0.4975156
v 3.901782 1.81283e-09 1.740317e-07
v 3.81239 1.81283e-09 0.7582087
v 3.618722 1.81283e-09 1.130642
v 1.068263 1.812831e-09 -1.850278
v 2.42988 1.81283e-09 -2.319815
v 1.600818 1.81283e-09 -2.772691
v 2.565927 1.81283e-09 -1.481435
v 2.104085 1.81283e-09 -1.21479
v 1.165662 1.81283e-09 -0.6729919
v 0.5803951 1.812831e-09 -1.005267
v 0.01448338 1.812831e-09 -0.008361992
v 0.007211411 1.812831e-09 -0.01249049
v 2.967742 1.81283e-09 -5.140272
v 2.427587 1.81283e-09 -4.204695
v 2.862156 1.81283e-09 -3.962362
v 1.950891 1.81283e-09 -3.379036
v 2.562823 1.81283e-09 -2.922516
v 2.788526 1.81283e-09 -2.568578
v 1.110039e-25 1.812831e-09 2.429581
v -0.7940841 1.812831e-09 3.264241
v 1.110039e-25 1.812831e-09 2.96287
v -1.068262 1.812831e-09 1.850278
v 1.110039e-25 1.812831e-09 1.345984
v -0.5803949 1.812831e-09 1.005267
v 1.110039e-25 1.812831e-09 0.01672387
v -0.007211411 1.812831e-09 0.01249037
v -1.600818 1.812831e-09 2.772691
v -1.249567 1.812831e-09 3.680724
v -0.830196 1.812831e-09 3.699219
v -1.950891 1.812831e-09 3.379036
v -2.000433 1.812831e-09 4.459877
v -2.427585 1.812831e-09 4.204696
v -2.967741 1.812831e-09 5.140272
v -0.01448327 1.812831e-09 -0.008361935
v -0.007211411 1.812831e-09 -0.01249049
v -0.580395 1.812831e-09 -1.005267
v -1.165662 1.812831e-09 -0.6729919
v -1.068263 1.812831e-09 -1.850278
v -2.104085 1.812831e-09 -1.214791
v -2.42988 1.812831e-09 -2.319815
v -2.565927 1.812831e-09 -1.481435
v -1.600818 1.812831e-09 -2.772691
v -2.562823 1.812831e-09 -2.922516
v -2.788526 1.812831e-09 -2.568578
v -1.950891 1.812831e-09 -3.379036
v -2.862156 1.812831e-09 -3.962362
v -2.427586 1.812831e-09 -4.204696
v -2.967741 1.812831e-09 -5.140272
v 1.160212e-07 1.812831e-09 -2.429581
v 0.7940848 1.812831e-09 -3.264242
v 2.320423e-07 1.812831e-09 -2.96287
v 1.249568 1.81283e-09 -3.680724
v 0.8301966 1.812831e-09 -3.699219
v 1.110039e-25 1.812831e-09 -0.01672393
v 0.007211411 1.812831e-09 -0.01249049
v 0.5803951 1.812831e-09 -1.005267
v 1.110039e-25 1.812831e-09 -1.345984
v 1.068263 1.812831e-09 -1.850278
v 1.600818 1.81283e-09 -2.772691
v 1.950891 1.81283e-09 -3.379036
v 2.000434 1.81283e-09 -4.459877
v 2.427587 1.81283e-09 -4.204695
v 2.967742 1.81283e-09 -5.140272
v 0.01448338 1.812831e-09 -0.008361992
v 0.01442282 1.812831e-09 -5.801058e-08
v 1.16079 1.81283e-09 -5.801058e-08
v 1.165662 1.81283e-09 -0.6729919
v 2.136525 1.81283e-09 5.801058e-08
v 2.104085 1.81283e-09 -1.21479
v 3.223964 1.81283e-09 -0.944427
v 2.565927 1.81283e-09 -1.481435
v 3.201637 1.81283e-09 1.160212e-07
v 3.812391 1.81283e-09 -0.7582082
v 3.618723 1.81283e-09 -1.130642
v 3.901782 1.81283e-09 1.740317e-07
v 4.86259 1.81283e-09 -0.4975152
v 4.855171 1.81283e-09 2.900529e-07
v 5.935483 1.81283e-09 3.480635e-07
v -0.007211411 1.812831e-09 -0.01249049
v 1.110039e-25 1.812831e-09 -0.01672393
v -0.580395 1.812831e-09 -1.005267
v 1.110039e-25 1.812831e-09 -1.345984
v -1.068263 1.812831e-09 -1.850278
v 1.160212e-07 1.812831e-09 -2.429581
v -0.7940843 1.812831e-09 -3.264242
v -1.600818 1.812831e-09 -2.772691
v -1.249567 1.812831e-09 -3.680724
v -1.950891 1.812831e-09 -3.379036
v -2.000434 1.812831e-09 -4.459877
v -2.427586 1.812831e-09 -4.204696
v -2.967741 1.812831e-09 -5.140272
v 2.320423e-07 1.812831e-09 -2.96287
v -0.8301963 1.812831e-09 -3.699219
vt 0.3947754 0.6601562
vt 0.3676758 0.5742188
vt 0.3405762 0.6318359
vt 0.2878418 0.4775391
vt 0.3266602 0.4101562
vt 0.5053711 0.1025391
vt 0.5053711 0.1000977
vt 0.5039062 0.1025391
vt 0.5053711 0.2734375
vt 0.4057617 0.2729492
vt 0.5053711 0.4155273
vt 0.5053711 0.5710449
vt 0.5053711 0.6730957
vt 0.4328613 0.8132324
vt 0.5053711 0.8121338
vt 0.5053711 0.969696
vt 0.5053711 0.4155273
vt 0.3266602 0.4101562
vt 0.4057617 0.2729492
vt 0.5053711 0.2734375
vt 0.5039062 0.1025391
vt 0.5053711 0.1025391
vt 0.5053711 0.969696
vt 0.4328613 0.8132324
vt 0.5053711 0.8121338
vt 0.5053711 0.6730957
vt 0.3947754 0.6601562
vt 0.5053711 0.5710449
vt 0.3676758 0.5742188
vt 0.2878418 0.4775391
vt 0.3405762 0.6318359
vt 0.2878418 0.4775391
vt 0.3676758 0.5742188
vt 0.3266602 0.4101562
vt 0.3947754 0.6601562
vt 0.3405762 0.6318359
vt 0.5053711 0.969696
vt 0.5053711 0.8121338
vt 0.4328613 0.8132324
vt 0.5053711 0.6730957
vt 0.5053711 0.5710449
vt 0.5053711 0.4155273
vt 0.4057617 0.2729492
vt 0.5053711 0.2734375
vt 0.5039062 0.1025391
vt 0.5053711 0.1025391
vt 0.5053711 0.1025391
vt 0.5039062 0.1025391
vt 0.5053711 0.2734375
vt 0.4057617 0.2729492
vt 0.5053711 0.4155273
vt 0.3266602 0.4101562
vt 0.3676758 0.5742188
vt 0.2878418 0.4775391
vt 0.5053711 0.5710449
vt 0.5053711 0.969696
vt 0.5053711 0.8121338
vt 0.4328613 0.8132324
vt 0.5053711 0.6730957
vt 0.3947754 0.6601562
vt 0.3405762 0.6318359
vt 0.3266602 0.4101562
vt 0.3676758 0.5742188
vt 0.2878418 0.4775391
vt 0.3947754 0.6601562
vt 0.3405762 0.6318359
vt 0.5039062 0.1025391
vt 0.5053711 0.1025391
vt 0.5053711 0.2734375
vt 0.4057617 0.2729492
vt 0.5053711 0.4155273
vt 0.5053711 0.5710449
vt 0.5053711 0.6730957
vt 0.4328613 0.8132324
vt 0.5053711 0.8121338
vt 0.5053711 0.969696
vt 0.5053711 0.1025391
vt 0.5039062 0.1025391
vt 0.5053711 0.2734375
vt 0.4057617 0.2729492
vt 0.5053711 0.4155273
vt 0.3266602 0.4101562
vt 0.3676758 0.5742188
vt 0.2878418 0.4775391
vt 0.5053711 0.5710449
vt 0.5053711 0.969696
vt 0.5053711 0.8121338
vt 0.4328613 0.8132324
vt 0.5053711 0.6730957
vt 0.3947754 0.6601562
vt 0.3405762 0.6318359
vt 0.5053711 0.4155273
vt 0.3676758 0.5742188
vt 0.5053711 0.5710449
vt 0.2878418 0.4775391
vt 0.3266602 0.4101562
vt 0.4057617 0.2729492
vt 0.5053711 0.2734375
vt 0.5039062 0.1025391
vt 0.5053711 0.1025391
vt 0.5053711 0.969696
vt 0.5053711 0.8121338
vt 0.4328613 0.8132324
vt 0.5053711 0.6730957
vt 0.3947754 0.6601562
vt 0.3405762 0.6318359
vt 0.3266602 0.4101562
vt 0.3676758 0.5742188
vt 0.2878418 0.4775391
vt 0.5053711 0.4155273
vt 0.4057617 0.2729492
vt 0.5053711 0.2734375
vt 0.5039062 0.1025391
vt 0.5053711 0.1025391
vt 0.5053711 0.5710449
vt 0.3947754 0.6601562
vt 0.3405762 0.6318359
vt 0.5053711 0.6730957
vt 0.4328613 0.8132324
vt 0.5053711 0.8121338
vt 0.5053711 0.969696
vt 0.5039062 0.1025391
vt 0.5053711 0.1025391
vt 0.5053711 0.2734375
vt 0.4057617 0.2729492
vt 0.5053711 0.4155273
vt 0.3266602 0.4101562
vt 0.3676758 0.5742188
vt 0.2878418 0.4775391
vt 0.5053711 0.5710449
vt 0.3947754 0.6601562
vt 0.3405762 0.6318359
vt 0.5053711 0.6730957
vt 0.4328613 0.8132324
vt 0.5053711 0.8121338
vt 0.5053711 0.969696
vt 0.3266602 0.4101562
vt 0.3676758 0.5742188
vt 0.2878418 0.4775391
vt 0.3947754 0.6601562
vt 0.3405762 0.6318359
vt 0.5039062 0.1025391
vt 0.5053711 0.1025391
vt 0.5053711 0.2734375
vt 0.4057617 0.2729492
vt 0.5053711 0.4155273
vt 0.5053711 0.5710449
vt 0.5053711 0.6730957
vt 0.4328613 0.8132324
vt 0.5053711 0.8121338
vt 0.5053711 0.969696
vt 0.5039062 0.1025391
vt 0.5053711 0.1025391
vt 0.5053711 0.2734375
vt 0.4057617 0.2729492
vt 0.5053711 0.4155273
vt 0.3266602 0.4101562
vt 0.3676758 0.5742188
vt 0.2878418 0.4775391
vt 0.5053711 0.5710449
vt 0.3947754 0.6601562
vt 0.3405762 0.6318359
vt 0.5053711 0.6730957
vt 0.4328613 0.8132324
vt 0.5053711 0.8121338
vt 0.5053711 0.969696
vt 0.5053711 0.1025391
vt 0.5039062 0.1025391
vt 0.5053711 0.2734375
vt 0.4057617 0.2729492
vt 0.5053711 0.4155273
vt 0.3266602 0.4101562
vt 0.3676758 0.5742188
vt 0.5053711 0.5710449
vt 0.3947754 0.6601562
vt 0.5053711 0.6730957
vt 0.4328613 0.8132324
vt 0.5053711 0.8121338
vt 0.5053711 0.969696
vt 0.2878418 0.4775391
vt 0.3405762 0.6318359
vn -0.007873528 0.999938 -0.007873528
vn -0.007873528 0.999938 -0.007873528
vn -0.007873528 0.999938 -0.007873528
vn -0.007873528 0.999938 -0.007873528
vn -0.007873528 0.999938 -0.007873528
vn -0.007873528 0.999938 -0.007873528
vn -0.007873528 0.999938 -0.007873528
vn -0.007873528 0.999938 -0.007873528
vn -0.007873528 0.999938 -0.007873528
vn -0.007873528 0.999938 -0.007873528
vn -0.007873528 0.999938 -0.007873528
vn -0.007873528 0.999938 -0.007873528
vn -0.007873528 0.999938 -0.007873528
vn -0.007873528 0.999938 -0.007873528
vn -0.007873528 0.999938 -0.007873528
vn -0.007873528 0.999938 -0.007873528
vn -0.007873528 0.999938 -0.007873528
vn -0.007873528 0.999938 -0.007873528
vn -0.007873528 0.999938 -0.007873528
vn -0.007873528 0.999938 -0.007873528
vn -0.007873528 0.999938 -0.007873528
vn -0.007873528 0.999938 -0.007873528
vn -0.007873528 0.999938 -0.007873528
vn -0.007873528 0.999938 -0.007873528
vn -0.007873528 0.999938 -0.007873528
vn -0.007873528 0.999938 -0.007873528
vn -0.007873528 0.999938 -0.007873528
vn -0.007873528 0.999938 -0.007873528
vn -0.007873528 0.999938 -0.007873528
vn -0.007873528 0.999938 -0.007873528
vn -0.007873528 0.999938 -0.007873528
vn -0.007873528 0.999938 -0.007873528
vn -0.007873528 0.999938 -0.007873528
vn -0.007873528 0.999938 -0.007873528
vn -0.007873528 0.999938 -0.007873528
vn -0.007873528 0.999938 -0.007873528
vn -0.007873528 0.999938 -0.007873528
vn -0.007873528 0.999938 -0.007873528
vn -0.007873528 0.999938 -0.007873528
vn -0.007873528 0.999938 -0.007873528
vn -0.007873528 0.999938 -0.007873528
vn -0.007873528 0.999938 -0.007873528
vn -0.007873528 0.999938 -0.007873528
vn -0.007873528 0.999938 -0.007873528
vn -0.007873528 0.999938 -0.007873528
vn -0.007873528 0.999938 -0.007873528
vn -0.007873528 0.999938 -0.007873528
vn -0.007873528 0.999938 -0.007873528
vn -0.007873528 0.999938 -0.007873528
vn -0.007873528 0.999938 -0.007873528
vn -0.007873528 0.999938 -0.007873528
vn -0.007873528 0.999938 -0.007873528
vn -0.007873528 0.999938 -0.007873528
vn -0.007873528 0.999938 -0.007873528
vn -0.007873528 0.999938 -0.007873528
vn -0.007873528 0.999938 -0.007873528
vn -0.007873528 0.999938 -0.007873528
vn -0.007873528 0.999938 -0.007873528
vn -0.007873528 0.999938 -0.007873528
vn -0.007873528 0.999938 -0.007873528
vn -0.007873528 0.999938 -0.007873528
vn -0.007873528 0.999938 -0.007873528
vn -0.007873528 0.999938 -0.007873528
vn -0.007873528 0.999938 -0.007873528
vn -0.007873528 0.999938 -0.007873528
vn -0.007873528 0.999938 -0.007873528
vn -0.007873528 0.999938 -0.007873528
vn -0.007873528 0.999938 -0.007873528
vn -0.007873528 0.999938 -0.007873528
vn -0.007873528 0.999938 -0.007873528
vn -0.007873528 0.999938 -0.007873528
vn -0.007873528 0.999938 -0.007873528
vn -0.007873528 0.999938 -0.007873528
vn -0.007873528 0.999938 -0.007873528
vn -0.007873528 0.999938 -0.007873528
vn -0.007873528 0.999938 -0.007873528
vn -0.007873528 0.999938 -0.007873528
vn -0.007873528 0.999938 -0.007873528
vn -0.007873528 0.999938 -0.007873528
vn -0.007873528 0.999938 -0.007873528
vn -0.007873528 0.999938 -0.007873528
vn -0.007873528 0.999938 -0.007873528
vn -0.007873528 0.999938 -0.007873528
vn -0.007873528 0.999938 -0.007873528
vn -0.007873528 0.999938 -0.007873528
vn -0.007873528 0.999938 -0.007873528
vn -0.007873528 0.999938 -0.007873528
vn -0.007873528 0.999938 -0.007873528
vn -0.007873528 0.999938 -0.007873528
vn -0.007873528 0.999938 -0.007873528
vn -0.007873528 0.999938 -0.007873528
vn -0.007873528 0.999938 -0.007873528
vn -0.007873528 0.999938 -0.007873528
vn -0.007873528 0.999938 -0.007873528
vn -0.007873528 0.999938 -0.007873528
vn -0.007873528 0.999938 -0.007873528
vn -0.007873528 0.999938 -0.007873528
vn -0.007873528 0.999938 -0.007873528
vn -0.007873528 0.999938 -0.007873528
vn -0.007873528 0.999938 -0.007873528
vn -0.007873528 0.999938 -0.007873528
vn -0.007873528 0.999938 -0.007873528
vn -0.007873528 0.999938 -0.007873528
vn -0.007873528 0.999938 -0.007873528
vn -0.007873528 0.999938 -0.007873528
vn -0.007873528 0.999938 -0.007873528
vn -0.007873528 0.999938 -0.007873528
vn -0.007873528 0.999938 -0.007873528
vn -0.007873528 0.999938 -0.007873528
vn -0.007873528 0.999938 -0.007873528
vn -0.007873528 0.999938 -0.007873528
vn -0.007873528 0.999938 -0.007873528
vn -0.007873528 0.999938 -0.007873528
vn -0.007873528 0.999938 -0.007873528
vn -0.007873528 0.999938 -0.007873528
vn -0.007873528 0.999938 -0.007873528
vn -0.007873528 0.999938 -0.007873528
vn -0.007873528 0.999938 -0.007873528
vn -0.007873528 0.999938 -0.007873528
vn -0.007873528 0.999938 -0.007873528
vn -0.007873528 0.999938 -0.007873528
vn -0.007873528 0.999938 -0.007873528
vn -0.007873528 0.999938 -0.007873528
vn -0.007873528 0.999938 -0.007873528
vn -0.007873528 0.999938 -0.007873528
vn -0.007873528 0.999938 -0.007873528
vn -0.007873528 0.999938 -0.007873528
vn -0.007873528 0.999938 -0.007873528
vn -0.007873528 0.999938 -0.007873528
vn -0.007873528 0.999938 -0.007873528
vn -0.007873528 0.999938 -0.007873528
vn -0.007873528 0.999938 -0.007873528
vn -0.007873528 0.999938 -0.007873528
vn -0.007873528 0.999938 -0.007873528
vn -0.007873528 0.999938 -0.007873528
vn -0.007873528 0.999938 -0.007873528
vn -0.007873528 0.999938 -0.007873528
vn -0.007873528 0.999938 -0.007873528
vn -0.007873528 0.999938 -0.007873528
vn -0.007873528 0.999938 -0.007873528
vn -0.007873528 0.999938 -0.007873528
vn -0.007873528 0.999938 -0.007873528
vn -0.007873528 0.999938 -0.007873528
vn -0.007873528 0.999938 -0.007873528
vn -0.007873528 0.999938 -0.007873528
vn -0.007873528 0.999938 -0.007873528
vn -0.007873528 0.999938 -0.007873528
vn -0.007873528 0.999938 -0.007873528
vn -0.007873528 0.999938 -0.007873528
vn -0.007873528 0.999938 -0.007873528
vn -0.007873528 0.999938 -0.007873528
vn -0.007873528 0.999938 -0.007873528
vn -0.007873528 0.999938 -0.007873528
vn -0.007873528 0.999938 -0.007873528
vn -0.007873528 0.999938 -0.007873528
vn -0.007873528 0.999938 -0.007873528
vn -0.007873528 0.999938 -0.007873528
vn -0.007873528 0.999938 -0.007873528
vn -0.007873528 0.999938 -0.007873528
vn -0.007873528 0.999938 -0.007873528
vn -0.007873528 0.999938 -0.007873528
vn -0.007873528 0.999938 -0.007873528
vn -0.007873528 0.999938 -0.007873528
vn -0.007873528 0.999938 -0.007873528
vn -0.007873528 0.999938 -0.007873528
vn -0.007873528 0.999938 -0.007873528
vn -0.007873528 0.999938 -0.007873528
vn -0.007873528 0.999938 -0.007873528
vn -0.007873528 0.999938 -0.007873528
vn -0.007873528 0.999938 -0.007873528
vn -0.007873528 0.999938 -0.007873528
vn -0.007873528 0.999938 -0.007873528
vn -0.007873528 0.999938 -0.007873528
vn -0.007873528 0.999938 -0.007873528
vn -0.007873528 0.999938 -0.007873528
vn -0.007873528 0.999938 -0.007873528
vn -0.007873528 0.999938 -0.007873528
vn -0.007873528 0.999938 -0.007873528
vn -0.007873528 0.999938 -0.007873528
vn -0.007873528 0.999938 -0.007873528
vn -0.007873528 0.999938 -0.007873528
f 1/1/1 2/2/2 3/3/3
f 4/4/4 2/2/2 5/5/5
f 6/6/6 7/7/7 8/8/8
f 8/8/8 9/9/9 6/6/6
f 10/10/10 9/9/9 8/8/8
f 10/10/10 11/11/11 9/9/9
f 5/5/5 11/11/11 10/10/10
f 2/2/2 11/11/11 5/5/5
f 11/11/11 2/2/2 12/12/12
f 1/1/1 12/12/12 2/2/2
f 13/13/13 12/12/12 1/1/1
f 14/14/14 13/13/13 1/1/1
f 15/15/15 13/13/13 14/14/14
f 16/16/16 15/15/15 14/14/14
f 17/17/17 18/18/18 19/19/19
f 17/17/17 19/19/19 20/20/20
f 21/21/21 20/20/20 19/19/19
f 20/20/20 21/21/21 22/22/22
f 21/21/21 7/7/7 22/22/22
f 23/23/23 24/24/24 25/25/25
f 26/26/26 25/25/25 24/24/24
f 24/24/24 27/27/27 26/26/26
f 26/26/26 27/27/27 28/28/28
f 27/27/27 29/29/29 28/28/28
f 29/29/29 17/17/17 28/28/28
f 17/17/17 29/29/29 18/18/18
f 18/18/18 29/29/29 30/30/30
f 27/27/27 31/31/31 29/29/29
f 32/32/32 33/33/33 34/34/34
f 35/35/35 33/33/33 36/36/36
f 37/37/37 38/38/38 39/39/39
f 38/38/38 40/40/40 39/39/39
f 39/39/39 40/40/40 35/35/35
f 40/40/40 41/41/41 35/35/35
f 35/35/35 41/41/41 33/33/33
f 42/42/42 33/33/33 41/41/41
f 33/33/33 42/42/42 34/34/34
f 34/34/34 42/42/42 43/43/43
f 43/43/43 42/42/42 44/44/44
f 43/43/43 44/44/44 45/45/45
f 45/45/45 44/44/44 46/46/46
f 46/46/46 7/7/7 45/45/45
f 47/47/47 7/7/7 48/48/48
f 49/49/49 47/47/47 48/48/48
f 48/48/48 50/50/50 49/49/49
f 49/49/49 50/50/50 51/51/51
f 50/50/50 52/52/52 51/51/51
f 53/53/53 51/51/51 52/52/52
f 53/53/53 52/52/52 54/54/54
f 51/51/51 53/53/53 55/55/55
f 56/56/56 57/57/57 58/58/58
f 59/59/59 58/58/58 57/57/57
f 60/60/60 58/58/58 59/59/59
f 55/55/55 60/60/60 59/59/59
f 55/55/55 53/53/53 60/60/60
f 60/60/60 53/53/53 61/61/61
f 62/62/62 63/63/63 64/64/64
f 65/65/65 66/66/66 63/63/63
f 67/67/67 7/7/7 68/68/68
f 69/69/69 67/67/67 68/68/68
f 67/67/67 69/69/69 70/70/70
f 71/71/71 70/70/70 69/69/69
f 71/71/71 62/62/62 70/70/70
f 71/71/71 63/63/63 62/62/62
f 63/63/63 71/71/71 72/72/72
f 65/65/65 63/63/63 72/72/72
f 73/73/73 65/65/65 72/72/72
f 74/74/74 65/65/65 73/73/73
f 73/73/73 75/75/75 74/74/74
f 76/76/76 74/74/74 75/75/75
f 77/77/77 7/7/7 78/78/78
f 79/79/79 77/77/77 78/78/78
f 78/78/78 80/80/80 79/79/79
f 79/79/79 80/80/80 81/81/81
f 80/80/80 82/82/82 81/81/81
f 83/83/83 81/81/81 82/82/82
f 83/83/83 82/82/82 84/84/84
f 81/81/81 83/83/83 85/85/85
f 86/86/86 87/87/87 88/88/88
f 89/89/89 88/88/88 87/87/87
f 90/90/90 88/88/88 89/89/89
f 85/85/85 90/90/90 89/89/89
f 85/85/85 83/83/83 90/90/90
f 90/90/90 83/83/83 91/91/91
f 92/92/92 93/93/93 94/94/94
f 95/95/95 93/93/93 96/96/96
f 93/93/93 92/92/92 96/96/96
f 96/96/96 92/92/92 97/97/97
f 97/97/97 92/92/92 98/98/98
f 98/98/98 99/99/99 97/97/97
f 99/99/99 98/98/98 100/100/100
f 100/100/100 7/7/7 99/99/99
f 101/101/101 102/102/102 103/103/103
f 102/102/102 104/104/104 103/103/103
f 103/103/103 104/104/104 105/105/105
f 104/104/104 94/94/94 105/105/105
f 105/105/105 94/94/94 93/93/93
f 105/105/105 93/93/93 106/106/106
f 107/107/107 108/108/108 109/109/109
f 110/110/110 108/108/108 107/107/107
f 111/111/111 110/110/110 107/107/107
f 112/112/112 110/110/110 111/111/111
f 113/113/113 112/112/112 111/111/111
f 112/112/112 113/113/113 114/114/114
f 113/113/113 7/7/7 114/114/114
f 108/108/108 110/110/110 115/115/115
f 116/116/116 117/117/117 108/108/108
f 115/115/115 116/116/116 108/108/108
f 116/116/116 115/115/115 118/118/118
f 118/118/118 119/119/119 116/116/116
f 119/119/119 118/118/118 120/120/120
f 121/121/121 119/119/119 120/120/120
f 122/122/122 7/7/7 123/123/123
f 124/124/124 122/122/122 123/123/123
f 122/122/122 124/124/124 125/125/125
f 124/124/124 126/126/126 125/125/125
f 125/125/125 126/126/126 127/127/127
f 126/126/126 128/128/128 127/127/127
f 127/127/127 128/128/128 129/129/129
f 128/128/128 126/126/126 130/130/130
f 131/131/131 132/132/132 128/128/128
f 130/130/130 131/131/131 128/128/128
f 131/131/131 130/130/130 133/133/133
f 133/133/133 134/134/134 131/131/131
f 134/134/134 133/133/133 135/135/135
f 136/136/136 134/134/134 135/135/135
f 137/137/137 138/138/138 139/139/139
f 140/140/140 141/141/141 138/138/138
f 142/142/142 7/7/7 143/143/143
f 144/144/144 142/142/142 143/143/143
f 142/142/142 144/144/144 145/145/145
f 146/146/146 145/145/145 144/144/144
f 146/146/146 137/137/137 145/145/145
f 146/146/146 138/138/138 137/137/137
f 138/138/138 146/146/146 147/147/147
f 140/140/140 138/138/138 147/147/147
f 148/148/148 140/140/140 147/147/147
f 149/149/149 140/140/140 148/148/148
f 148/148/148 150/150/150 149/149/149
f 151/151/151 149/149/149 150/150/150
f 152/152/152 7/7/7 153/153/153
f 154/154/154 152/152/152 153/153/153
f 152/152/152 154/154/154 155/155/155
f 154/154/154 156/156/156 155/155/155
f 155/155/155 156/156/156 157/157/157
f 156/156/156 158/158/158 157/157/157
f 157/157/157 158/158/158 159/159/159
f 158/158/158 156/156/156 160/160/160
f 161/161/161 162/162/162 158/158/158
f 160/160/160 161/161/161 158/158/158
f 161/161/161 160/160/160 163/163/163
f 163/163/163 164/164/164 161/161/161
f 164/164/164 163/163/163 165/165/165
f 166/166/166 164/164/164 165/165/165
f 167/167/167 7/7/7 168/168/168
f 169/169/169 167/167/167 168/168/168
f 168/168/168 170/170/170 169/169/169
f 169/169/169 170/170/170 171/171/171
f 170/170/170 172/172/172 171/171/171
f 173/173/173 171/171/171 172/172/172
f 171/171/171 173/173/173 174/174/174
f 174/174/174 173/173/173 175/175/175
f 174/174/174 175/175/175 176/176/176
f 175/175/175 177/177/177 176/176/176
f 176/176/176 177/177/177 178/178/178
f 179/179/179 178/178/178 177/177/177
f 173/173/173 172/172/172 180/180/180
f 175/175/175 173/173/173 181/181/181
